<svg xmlns="http://www.w3.org/2000/svg" width="228" height="155" viewBox="65 39 107 107">
  <g fill="none" fill-rule="evenodd">
    <circle cx="178.229" cy="135.229" r="1.229" fill="#9D7FEE" fill-rule="nonzero" opacity=".489"/>
    <circle cx="157.099" cy="105.099" r="2.099" fill="#A287EF" fill-rule="nonzero" opacity=".271"/>
    <circle cx="149.103" cy="110.103" r="1.103" fill="#9E81EE" fill-rule="nonzero" opacity=".347"/>
    <circle cx="193.601" cy="108.601" r="1.601" fill="#8966EA" fill-rule="nonzero" opacity=".848"/>
    <circle cx="158.083" cy="85.083" r="2.083" fill="#A083EE" fill-rule="nonzero" opacity=".238"/>
    <circle cx="198.9" cy="90.9" r="1.9" fill="#9F82EE" fill-rule="nonzero" opacity=".15"/>
    <circle cx="190.893" cy="70.893" r="1.893" fill="#8B69EA" fill-rule="nonzero" opacity=".504"/>
    <circle cx="172.018" cy="130.018" r="2.018" fill="#8D6BEB" fill-rule="nonzero" opacity=".631"/>
    <circle cx="188.759" cy="118.759" r="2.759" fill="#A68BEF" fill-rule="nonzero" opacity=".077"/>
    <circle cx="161.601" cy="147.601" r="1.601" fill="#9778ED" fill-rule="nonzero" opacity=".27"/>
    <circle cx="179.879" cy="64.879" r="2.879" fill="#8763EA" fill-rule="nonzero" opacity=".606"/>
    <circle cx="157.262" cy="141.262" r="2.262" fill="#8F6EEB" fill-rule="nonzero" opacity=".804"/>
    <circle cx="154.197" cy="72.197" r="2.197" fill="#9271EC" fill-rule="nonzero" opacity=".562"/>
    <circle cx="168.608" cy="133.608" r="1.608" fill="#A185EE" fill-rule="nonzero" opacity=".233"/>
    <circle cx="195.196" cy="101.196" r="1.196" fill="#8C69EB" fill-rule="nonzero" opacity=".865"/>
    <circle cx="118.618" cy="34.618" r="2.618" fill="#A78DEF" fill-rule="nonzero" opacity=".152"/>
    <circle cx="188.985" cy="82.985" r="2.985" fill="#8D6BEB" fill-rule="nonzero" opacity=".719"/>
    <circle cx="181.488" cy="72.488" r="2.488" fill="#9677EC" fill-rule="nonzero" opacity=".344"/>
    <circle cx="168.623" cy="48.623" r="2.623" fill="#8966EA" fill-rule="nonzero" opacity=".24"/>
    <circle cx="54.634" cy="116.634" r="2.634" fill="#A58AEF" fill-rule="nonzero" opacity=".66"/>
    <circle cx="127.206" cy="136.206" r="2.206" fill="#8A67EA" fill-rule="nonzero" opacity=".292"/>
    <circle cx="173.555" cy="59.555" r="1.555" fill="#9575EC" fill-rule="nonzero" opacity=".136"/>
    <circle cx="159.848" cy="95.848" r="2.848" fill="#8966EA" fill-rule="nonzero" opacity=".121"/>
    <circle cx="171.297" cy="68.297" r="1.297" fill="#8B68EA" fill-rule="nonzero" opacity=".804"/>
    <circle cx="175.182" cy="141.182" r="1.182" fill="#8A68EA" fill-rule="nonzero" opacity=".876"/>
    <circle cx="195.378" cy="94.378" r="1.378" fill="#A084EE" fill-rule="nonzero" opacity=".09"/>
    <circle cx="180.901" cy="90.901" r="1.901" fill="#9E81EE" fill-rule="nonzero" opacity=".892"/>
    <circle cx="177.748" cy="116.748" r="1.748" fill="#8966EA" fill-rule="nonzero" opacity=".185"/>
    <circle cx="174.485" cy="122.485" r="1.485" fill="#906FEB" fill-rule="nonzero" opacity=".382"/>
    <circle cx="191.285" cy="132.285" r="1.285" fill="#8A67EA" fill-rule="nonzero" opacity=".076"/>
    <circle cx="186.863" cy="61.863" r="1.863" fill="#9A7CED" fill-rule="nonzero" opacity=".725"/>
    <circle cx="132.427" cy="96.427" r="2.427" fill="#9D7FEE" fill-rule="nonzero" opacity=".2"/>
    <circle cx="225.593" cy="104.86" r="2.722" fill="#A185EE" fill-rule="nonzero" opacity=".001"/>
    <circle cx="181.8" cy="127.22" r="2.695" fill="#A184EE" fill-rule="nonzero" opacity=".478"/>
    <circle cx="94.893" cy="34.893" r="1.893" fill="#9271EC" fill-rule="nonzero" opacity=".203"/>
    <circle cx="170.171" cy="107.538" r="2.35" fill="#A58AEF" fill-rule="nonzero" opacity="0"/>
    <circle cx="139.217" cy="135.217" r="1.217" fill="#9E81EE" fill-rule="nonzero" opacity=".068"/>
    <circle cx="188.998" cy="113.998" r="1.998" fill="#A185EE" fill-rule="nonzero" opacity=".704"/>
    <circle cx="187.254" cy="104.254" r="2.254" fill="#A286EF" fill-rule="nonzero" opacity=".599"/>
    <circle cx="152.983" cy="48.983" r="1.983" fill="#A68CEF" fill-rule="nonzero" opacity=".534"/>
    <circle cx="144.848" cy="118.848" r="1.848" fill="#8763EA" fill-rule="nonzero" opacity=".079"/>
    <circle cx="180.964" cy="107.964" r="2.964" fill="#8A68EA" fill-rule="nonzero" opacity=".908"/>
    <circle cx="132.007" cy="153.007" r="2.007" fill="#9B7DED" fill-rule="nonzero" opacity=".055"/>
    <circle cx="104.761" cy="83.761" r="2.761" fill="#8D6BEB" fill-rule="nonzero" opacity=".159"/>
    <circle cx="117.761" cy="72.761" r="2.761" fill="#8D6BEB" fill-rule="nonzero" opacity=".159"/>
    <circle cx="185.465" cy="75.873" r="2.165" fill="#A78DEF" fill-rule="nonzero" opacity=".004"/>
    <circle cx="165.096" cy="39.096" r="2.096" fill="#A58AEF" fill-rule="nonzero" opacity=".554"/>
    <circle cx="182.367" cy="54.367" r="1.367" fill="#9676EC" fill-rule="nonzero" opacity=".294"/>
    <circle cx="189.002" cy="97.049" r="1.712" fill="#9B7DED" fill-rule="nonzero" opacity=".676"/>
    <circle cx="197.852" cy="78.852" r="1.852" fill="#9576EC" fill-rule="nonzero" opacity=".187"/>
    <circle cx="77.852" cy="112.852" r="1.852" fill="#9576EC" fill-rule="nonzero" opacity=".187"/>
    <circle cx="213.06" cy="57.48" r="1.247" fill="#8A68EA" fill-rule="nonzero" opacity=".036"/>
    <circle cx="173.185" cy="44.356" r="1.546" fill="#9271EC" fill-rule="nonzero" opacity=".049"/>
    <circle cx="108.07" cy="149.07" r="2.07" fill="#A184EE" fill-rule="nonzero" opacity=".615"/>
    <circle cx="168.732" cy="141.609" r="1.907" fill="#9271EC" fill-rule="nonzero" opacity=".557"/>
    <circle cx="168.469" cy="85.364" r="2.515" fill="#9777ED" fill-rule="nonzero" opacity=".045"/>
    <circle cx="138.404" cy="49.404" r="1.404" fill="#A58AEF" fill-rule="nonzero" opacity=".415"/>
    <circle cx="176.159" cy="49.159" r="2.159" fill="#9778ED" fill-rule="nonzero" opacity=".584"/>
    <circle cx="109.291" cy="156.291" r="2.291" fill="#A185EE" fill-rule="nonzero" opacity=".315"/>
    <circle cx="152.324" cy="116.379" r="1.921" fill="#9372EC" fill-rule="nonzero" opacity="0"/>
    <circle cx="148.642" cy="37.642" r="2.642" fill="#8F6EEB" fill-rule="nonzero" opacity=".194"/>
    <circle cx="140.814" cy="152.814" r="1.814" fill="#8864EA" fill-rule="nonzero" opacity=".673"/>
    <circle cx="88.971" cy="126.971" r="1.971" fill="#9271EC" fill-rule="nonzero" opacity=".774"/>
    <circle cx="152.389" cy="148.272" r="2.131" fill="#906FEB" fill-rule="nonzero" opacity=".471"/>
    <circle cx="121.694" cy="156.421" r="2.904" fill="#9576EC" fill-rule="nonzero" opacity=".856"/>
    <circle cx="142.413" cy="64.413" r="2.413" fill="#9F83EE" fill-rule="nonzero" opacity=".047"/>
    <circle cx="117.849" cy="45.849" r="2.849" fill="#9474EC" fill-rule="nonzero" opacity=".085"/>
    <circle cx="138.692" cy="101.216" r="2.335" fill="#A388EF" fill-rule="nonzero" opacity=".018"/>
    <circle cx="156.971" cy="34.971" r="1.971" fill="#A58AEF" fill-rule="nonzero" opacity=".986"/>
    <circle cx="140.714" cy="161.602" r="2.074" fill="#9474EC" fill-rule="nonzero" opacity=".019"/>
    <circle cx="94.087" cy="139.744" r="1.477" fill="#9475EC" fill-rule="nonzero" opacity=".362"/>
    <circle cx="157.463" cy="55.241" r="2.338" fill="#A387EF" fill-rule="nonzero" opacity=".134"/>
    <circle cx="132.476" cy="62.982" r="1.532" fill="#9A7CED" fill-rule="nonzero" opacity=".006"/>
    <circle cx="123.553" cy="137.062" r="2.465" fill="#A184EE" fill-rule="nonzero" opacity=".022"/>
    <circle cx="94.509" cy="152.509" r="2.509" fill="#8D6BEB" fill-rule="nonzero" opacity=".935"/>
    <circle cx="140.007" cy="44.116" r="2.703" fill="#9B7DED" fill-rule="nonzero" opacity=".152"/>
    <circle cx="194.78" cy="59.216" r="2.746" fill="#8D6BEB" fill-rule="nonzero" opacity=".023"/>
    <circle cx="142.852" cy="21.945" r="1.003" fill="#9778ED" fill-rule="nonzero" opacity=".022"/>
    <circle cx="107.95" cy="134.95" r="2.95" fill="#A78DEF" fill-rule="nonzero" opacity=".061"/>
    <circle cx="125.992" cy="33.198" r="1.508" fill="#906FEB" fill-rule="nonzero" opacity=".009"/>
    <circle cx="130.766" cy="158.766" r="1.766" fill="#9F82EE" fill-rule="nonzero" opacity=".285"/>
    <circle cx="102.215" cy="51.215" r="1.215" fill="#A78CEF" fill-rule="nonzero" opacity=".244"/>
    <circle cx="119.989" cy="108.054" r="2.768" fill="#906EEB" fill-rule="nonzero" opacity=".003"/>
    <circle cx="151.135" cy="73.516" r="1.147" fill="#9F82EE" fill-rule="nonzero" opacity="0"/>
    <circle cx="101.662" cy="96.662" r="2.662" fill="#8966EA" fill-rule="nonzero" opacity=".379"/>
    <circle cx="121.772" cy="84.218" r="2.805" fill="#8763EA" fill-rule="nonzero" opacity=".057"/>
    <circle cx="92.22" cy="73.051" r="1.412" fill="#A88EF0" fill-rule="nonzero" opacity=".078"/>
    <circle cx="127.574" cy="26.574" r="2.574" fill="#8B69EB" fill-rule="nonzero" opacity=".708"/>
    <circle cx="112.248" cy="61.464" r="2.15" fill="#9E81EE" fill-rule="nonzero" opacity=".076"/>
    <circle cx="101.962" cy="119.909" r="2.32" fill="#9778ED" fill-rule="nonzero" opacity=".001"/>
    <circle cx="98.999" cy="42.059" r="2.195" fill="#9677EC" fill-rule="nonzero" opacity=".031"/>
    <circle cx="84.898" cy="51.994" r="2.776" fill="#8D6AEB" fill-rule="nonzero" opacity=".172"/>
    <circle cx="64.26" cy="135.26" r="1.26" fill="#A083EE" fill-rule="nonzero" opacity=".717"/>
    <circle cx="83.121" cy="17.101" r="2.893" fill="#A98FF0" fill-rule="nonzero" opacity=".001"/>
    <circle cx="74.465" cy="112.301" r="1.591" fill="#8F6DEB" fill-rule="nonzero" opacity=".005"/>
    <circle cx="74.401" cy="85.401" r="1.401" fill="#8B68EA" fill-rule="nonzero" opacity=".33"/>
    <circle cx="66.743" cy="59.271" r="1.515" fill="#8A67EA" fill-rule="nonzero" opacity="0"/>
    <circle cx="62.198" cy="128.22" r="1.479" fill="#906FEB" fill-rule="nonzero" opacity=".295"/>
    <circle cx="105.142" cy="30.142" r="1.142" fill="#9777EC" fill-rule="nonzero" opacity=".441"/>
    <circle cx="58.654" cy="74.553" r="1.685" fill="#916FEB" fill-rule="nonzero" opacity=".098"/>
    <circle cx="73.591" cy="37.365" r="1.335" fill="#A286EF" fill-rule="nonzero" opacity="0"/>
    <circle cx="72.901" cy="130.901" r="1.901" fill="#A88EF0" fill-rule="nonzero" opacity=".056"/>
    <circle cx="52.726" cy="41.093" r="2.745" fill="#8E6CEB" fill-rule="nonzero" opacity=".018"/>
    <circle cx="59.2" cy="97.124" r="1.318" fill="#9676EC" fill-rule="nonzero" opacity=".488"/>
    <circle cx="80.135" cy="82.135" r="2.135" fill="#997AED" fill-rule="nonzero" opacity=".069"/>
    <circle cx="88.528" cy="49.528" r="2.528" fill="#9B7DED" fill-rule="nonzero" opacity=".075"/>
    <circle cx="93.427" cy="69.427" r="2.427" fill="#9272EC" fill-rule="nonzero" opacity=".296"/>
    <circle cx="85.885" cy="29.885" r="2.885" fill="#8A68EA" fill-rule="nonzero" opacity=".148"/>
    <circle cx="114.218" cy="24.218" r="1.218" fill="#9474EC" fill-rule="nonzero" opacity=".423"/>
    <circle cx="76.472" cy="153.861" r="2.903" fill="#9575EC" fill-rule="nonzero" opacity=".02"/>
    <circle cx="95.82" cy="118.82" r="2.82" fill="#9271EC" fill-rule="nonzero" opacity=".024"/>
    <circle cx="146.551" cy="28.551" r="1.551" fill="#A58AEF" fill-rule="nonzero" opacity=".132"/>
    <circle cx="58.499" cy="59.499" r="2.499" fill="#9E81EE" fill-rule="nonzero" opacity=".911"/>
    <circle cx="70.191" cy="99.191" r="1.191" fill="#8864EA" fill-rule="nonzero" opacity=".618"/>
    <circle cx="71.63" cy="56.63" r="1.63" fill="#9F83EE" fill-rule="nonzero" opacity=".304"/>
    <circle cx="54.715" cy="69.715" r="1.715" fill="#9F83EE" fill-rule="nonzero" opacity=".756"/>
    <circle cx="99.165" cy="26.165" r="2.165" fill="#9879ED" fill-rule="nonzero" opacity=".319"/>
    <circle cx="41.129" cy="96.129" r="1.129" fill="#9576EC" fill-rule="nonzero" opacity=".073"/>
    <circle cx="39.009" cy="50.009" r="2.009" fill="#A388EF" fill-rule="nonzero" opacity=".051"/>
    <circle cx="83.423" cy="137.423" r="1.423" fill="#9B7EED" fill-rule="nonzero" opacity=".058"/>
    <circle cx="96.077" cy="98.077" r="1.077" fill="#A185EE" fill-rule="nonzero" opacity=".066"/>
    <circle cx="111.91" cy="108.91" r="2.91" fill="#9B7DED" fill-rule="nonzero" opacity=".245"/>
    <circle cx="58.27" cy="46.27" r="1.27" fill="#9474EC" fill-rule="nonzero" opacity=".08"/>
    <circle cx="70.069" cy="125.069" r="1.069" fill="#8A67EA" fill-rule="nonzero" opacity=".427"/>
    <circle cx="22.247" cy="63.247" r="2.247" fill="#A78CEF" fill-rule="nonzero" opacity="0"/>
    <circle cx="68.768" cy="11.768" r="2.768" fill="#9F82EE" fill-rule="nonzero" opacity=".004"/>
    <circle cx="57.046" cy="88.046" r="1.046" fill="#A58AEF" fill-rule="nonzero" opacity=".13"/>
    <circle cx="75.677" cy="142.677" r="2.677" fill="#9170EC" fill-rule="nonzero" opacity=".877"/>
    <circle cx="72.203" cy="117.203" r="1.203" fill="#A78DEF" fill-rule="nonzero" opacity=".135"/>
    <circle cx="78.573" cy="73.573" r="2.573" fill="#9372EC" fill-rule="nonzero" opacity=".562"/>
    <circle cx="42.424" cy="68.424" r="1.424" fill="#A287EF" fill-rule="nonzero" opacity=".911"/>
    <circle cx="46.776" cy="116.776" r="1.776" fill="#9B7DED" fill-rule="nonzero" opacity=".557"/>
    <circle cx="40.867" cy="85.867" r="2.867" fill="#9E81EE" fill-rule="nonzero" opacity=".072"/>
    <circle cx="79.518" cy="38.518" r="1.518" fill="#997BED" fill-rule="nonzero" opacity=".335"/>
    <circle cx="48.607" cy="54.607" r="2.607" fill="#9778ED" fill-rule="nonzero" opacity=".046"/>
    <circle cx="66.733" cy="41.733" r="1.733" fill="#9E81EE" fill-rule="nonzero" opacity=".77"/>
    <circle cx="47.989" cy="89.989" r="2.989" fill="#997BED" fill-rule="nonzero" opacity=".812"/>
    <circle cx="47.68" cy="75.68" r="2.68" fill="#8763EA" fill-rule="nonzero" opacity=".158"/>
    <circle cx="62.716" cy="114.716" r="2.716" fill="#A286EF" fill-rule="nonzero" opacity=".136"/>
    <circle cx="136.346" cy="31.346" r="1.346" fill="#9271EC" fill-rule="nonzero" opacity=".593"/>
    <circle cx="51.257" cy="101.257" r="1.257" fill="#9D80EE" fill-rule="nonzero" opacity=".222"/>
    <circle cx="60.249" cy="81.249" r="1.249" fill="#A287EF" fill-rule="nonzero" opacity=".469"/>
    <circle cx="47.572" cy="129.572" r="1.572" fill="#8C69EB" fill-rule="nonzero" opacity=".384"/>
    <circle cx="29.69" cy="10.69" r="1.69" fill="#997BED" fill-rule="nonzero" opacity=".042"/>
    <circle cx="2.319" cy="145.319" r="2.319" fill="#8A67EA" fill-rule="nonzero" opacity=".003"/>
    <circle cx="54.824" cy="106.824" r="1.824" fill="#9A7CED" fill-rule="nonzero" opacity=".816"/>
    <circle cx="56.779" cy="123.779" r="2.779" fill="#997AED" fill-rule="nonzero" opacity=".041"/>
    <circle cx="89.067" cy="62.067" r="2.067" fill="#9171EC" fill-rule="nonzero" opacity=".428"/>
    <circle cx="78.088" cy="52.088" r="2.088" fill="#8A66EA" fill-rule="nonzero" opacity=".413"/>
    <circle cx="87.65" cy="42.65" r="1.65" fill="#A58AEF" fill-rule="nonzero" opacity=".424"/>
    <circle cx="161.67" cy="156.072" r="1.764" fill="#8F6EEB" fill-rule="nonzero" opacity=".505"/>
    <circle cx="149.187" cy="150.462" r="2.434" fill="#8865EA" fill-rule="nonzero" opacity=".108"/>
    <circle cx="144.677" cy="160.85" r="2.736" fill="#8D6AEB" fill-rule="nonzero" opacity=".296"/>
    <circle cx="93.64" cy="129.849" r="2.285" fill="#8F6EEB" fill-rule="nonzero" opacity=".484"/>
    <circle cx="119.825" cy="145.133" r="1.015" fill="#9B7DED" fill-rule="nonzero" opacity=".539"/>
    <circle cx="134.13" cy="114.462" r="1.193" fill="#8C6AEB" fill-rule="nonzero" opacity=".384"/>
    <circle cx="136.388" cy="134.547" r="2.063" fill="#9B7DED" fill-rule="nonzero" opacity=".88"/>
    <circle cx="166.824" cy="155.884" r="1.257" fill="#906FEB" fill-rule="nonzero" opacity=".111"/>
    <circle cx="118.098" cy="92.162" r="2.601" fill="#A58AEF" fill-rule="nonzero" opacity=".089"/>
    <circle cx="126.04" cy="68.02" r="2.486" fill="#A88EF0" fill-rule="nonzero" opacity=".001"/>
    <circle cx="170.375" cy="124.247" r="2.457" fill="#9E81EE" fill-rule="nonzero" opacity=".308"/>
    <circle cx="111.849" cy="118.728" r="2.109" fill="#9D7FEE" fill-rule="nonzero" opacity="0"/>
    <circle cx="187.784" cy="140.895" r="2.387" fill="#9F83EE" fill-rule="nonzero" opacity=".463"/>
    <circle cx="152.632" cy="112.168" r="2.749" fill="#8865EA" fill-rule="nonzero" opacity=".138"/>
    <circle cx="153.706" cy="129.663" r="1.849" fill="#A185EE" fill-rule="nonzero" opacity=".135"/>
    <circle cx="198.238" cy="109.246" r="2.441" fill="#8A68EA" fill-rule="nonzero" opacity=".601"/>
    <circle cx="147.591" cy="36.483" r="1.601" fill="#8966EA" fill-rule="nonzero" opacity=".848"/>
    <circle cx="175.342" cy="112.224" r="2.489" fill="#A78DEF" fill-rule="nonzero" opacity=".481"/>
    <circle cx="134.121" cy="52.755" r="2.216" fill="#A084EE" fill-rule="nonzero" opacity=".005"/>
    <circle cx="152.121" cy="90.773" r="2.918" fill="#9F82EE" fill-rule="nonzero" opacity=".491"/>
    <circle cx="154.434" cy="58.051" r="2.712" fill="#9575EC" fill-rule="nonzero" opacity=".013"/>
    <circle cx="206.676" cy="93.865" r="2.906" fill="#A78CEF" fill-rule="nonzero" opacity=".429"/>
    <circle cx="101.689" cy="146.565" r="1.524" fill="#9A7CED" fill-rule="nonzero" opacity=".737"/>
    <circle cx="187.59" cy="87.427" r="2.834" fill="#8966EA" fill-rule="nonzero" opacity=".153"/>
    <circle cx="168.378" cy="40.881" r="2.083" fill="#A083EE" fill-rule="nonzero" opacity=".238"/>
    <circle cx="134.215" cy="83.952" r="1.969" fill="#9879ED" fill-rule="nonzero" opacity=".051"/>
    <circle cx="204.283" cy="129.587" r="2.82" fill="#8F6EEB" fill-rule="nonzero" opacity=".05"/>
    <circle cx="163.709" cy="19.349" r="2.018" fill="#8D6BEB" fill-rule="nonzero" opacity=".631"/>
    <circle cx="169.752" cy="84.301" r="2.147" fill="#9272EC" fill-rule="nonzero" opacity=".005"/>
    <circle cx="204.645" cy="71.476" r="2.879" fill="#8763EA" fill-rule="nonzero" opacity=".606"/>
    <circle cx="226.509" cy="105.265" r="1.058" fill="#9879ED" fill-rule="nonzero" opacity=".326"/>
    <circle cx="195.228" cy="56.692" r="2.982" fill="#9271EC" fill-rule="nonzero" opacity=".018"/>
    <circle cx="225.165" cy="81.166" r="2.197" fill="#9271EC" fill-rule="nonzero" opacity=".562"/>
    <circle cx="178.227" cy="62.96" r="2.284" fill="#9373EC" fill-rule="nonzero" opacity=".042"/>
    <circle cx="200.762" cy="51.177" r="1.555" fill="#9575EC" fill-rule="nonzero" opacity=".136"/>
    <circle cx="216.303" cy="72.893" r="2.848" fill="#8966EA" fill-rule="nonzero" opacity=".121"/>
    <circle cx="184.773" cy="37.041" r="1.219" fill="#8763EA" fill-rule="nonzero" opacity=".084"/>
    <circle cx="178.097" cy="118.616" r="1.381" fill="#8E6CEB" fill-rule="nonzero" opacity=".081"/>
    <circle cx="154.887" cy="134.44" r="1.142" fill="#9777EC" fill-rule="nonzero" opacity=".441"/>
    <circle cx="167.932" cy="40.433" r="2.291" fill="#8C6AEB" fill-rule="nonzero" opacity=".08"/>
    <circle cx="178.424" cy="19.424" r="1.424" fill="#8865EA" fill-rule="nonzero" opacity=".206"/>
    <circle cx="155.196" cy="95.035" r="1.902" fill="#8A67EA" fill-rule="nonzero" opacity=".048"/>
    <circle cx="173.297" cy="87.157" r="1.676" fill="#9E80EE" fill-rule="nonzero" opacity=".421"/>
    <circle cx="150.33" cy="21.755" r="1.901" fill="#8A66EA" fill-rule="nonzero" opacity=".113"/>
    <circle cx="150.682" cy="77.099" r="2.72" fill="#906FEB" fill-rule="nonzero" opacity=".317"/>
    <circle cx="151.43" cy="113.775" r="2.234" fill="#8966EA" fill-rule="nonzero" opacity=".193"/>
    <circle cx="137.354" cy="56.339" r="2.292" fill="#8865EA" fill-rule="nonzero" opacity=".499"/>
    <circle cx="169.408" cy="62.539" r="2.927" fill="#9271EC" fill-rule="nonzero" opacity=".002"/>
    <circle cx="132.789" cy="24.237" r="1.103" fill="#8E6DEB" fill-rule="nonzero" opacity=".015"/>
    <circle cx="145.617" cy="38.896" r="1.762" fill="#9778ED" fill-rule="nonzero" opacity=".172"/>
    <circle cx="121.149" cy="92.367" r="1.054" fill="#8763EA" fill-rule="nonzero" opacity=".002"/>
    <circle cx="123.701" cy="68.964" r="1.491" fill="#9474EC" fill-rule="nonzero" opacity=".122"/>
    <circle cx="113.424" cy="33.5" r="1.706" fill="#A68BEF" fill-rule="nonzero" opacity=".441"/>
    <circle cx="102.542" cy="20.056" r="2.279" fill="#A88FF0" fill-rule="nonzero" opacity=".171"/>
    <circle cx="131.278" cy="118.192" r="1.356" fill="#A387EF" fill-rule="nonzero" opacity=".003"/>
    <circle cx="137.982" cy="99.271" r="2.088" fill="#8965EA" fill-rule="nonzero" opacity=".011"/>
    <circle cx="95.991" cy="135.185" r="1.786" fill="#A68BEF" fill-rule="nonzero" opacity="0"/>
    <circle cx="77.977" cy="144.166" r="1.045" fill="#8A66EA" fill-rule="nonzero" opacity=".002"/>
    <circle cx="90.91" cy="70.753" r="1.244" fill="#8E6CEB" fill-rule="nonzero" opacity=".364"/>
    <circle cx="104.908" cy="83.638" r="2.448" fill="#A387EF" fill-rule="nonzero" opacity=".133"/>
    <circle cx="132.424" cy="136.424" r="2.011" fill="#9372EC" fill-rule="nonzero" opacity=".013"/>
    <circle cx="173.117" cy="135.406" r="2.52" fill="#9C7EED" fill-rule="nonzero" opacity="0"/>
    <circle cx="46.852" cy="130.523" r="2.807" fill="#8D6AEB" fill-rule="nonzero" opacity=".004"/>
    <circle cx="109.267" cy="116.367" r="2.992" fill="#9B7DED" fill-rule="nonzero" opacity=".572"/>
    <circle cx="109.57" cy="53.665" r="2.55" fill="#8966EA" fill-rule="nonzero" opacity=".585"/>
    <circle cx="86.523" cy="118.932" r="1.584" fill="#A185EE" fill-rule="nonzero" opacity=".004"/>
    <circle cx="99.326" cy="100.624" r="1.962" fill="#8763EA" fill-rule="nonzero" opacity=".082"/>
    <circle cx="66.744" cy="115.718" r="1.341" fill="#9D80EE" fill-rule="nonzero" opacity=".005"/>
    <circle cx="89.05" cy="35.66" r="2.772" fill="#9C7EED" fill-rule="nonzero" opacity=".504"/>
    <circle cx="81.077" cy="99.419" r="1.03" fill="#8865EA" fill-rule="nonzero" opacity=".404"/>
    <circle cx="28.716" cy="133.716" r="2.716" fill="#9575EC" fill-rule="nonzero" opacity=".077"/>
    <circle cx="74.915" cy="13.399" r="1.399" fill="#8B68EA" fill-rule="nonzero" opacity=".52"/>
    <circle cx="86.532" cy="52.684" r="1.767" fill="#A88EF0" fill-rule="nonzero" opacity=".489"/>
    <circle cx="66.996" cy="29.424" r="1.056" fill="#9D80EE" fill-rule="nonzero" opacity=".773"/>
    <circle cx="53.704" cy="94.704" r="2.704" fill="#916FEB" fill-rule="nonzero" opacity=".461"/>
    <circle cx="69.796" cy="86.215" r="2.314" fill="#9F83EE" fill-rule="nonzero" opacity=".167"/>
    <circle cx="65.788" cy="57.96" r="2.341" fill="#906EEB" fill-rule="nonzero" opacity=".424"/>
    <circle cx="27.534" cy="105.402" r="1.287" fill="#906FEB" fill-rule="nonzero" opacity=".527"/>
    <circle cx="50.37" cy="110.912" r="1.869" fill="#8A67EA" fill-rule="nonzero" opacity=".138"/>
    <circle cx="26.125" cy="87.276" r="1.847" fill="#9271EC" fill-rule="nonzero" opacity=".166"/>
    <circle cx="44.034" cy="23.002" r="2.731" fill="#9C7EED" fill-rule="nonzero" opacity=".292"/>
    <circle cx="38.853" cy="60.449" r="2.131" fill="#9473EC" fill-rule="nonzero" opacity=".43"/>
    <circle cx="22.673" cy="35.798" r="1.954" fill="#906FEB" fill-rule="nonzero" opacity=".138"/>
    <circle cx="52.356" cy="73.209" r="2.4" fill="#A68CEF" fill-rule="nonzero" opacity=".689"/>
    <circle cx="52.096" cy="46.489" r="2.859" fill="#9576EC" fill-rule="nonzero" opacity=".104"/>
    <circle cx="21.006" cy="53.002" r="1.187" fill="#9879ED" fill-rule="nonzero" opacity=".539"/>
    <circle cx="31.422" cy="122.043" r="2.697" fill="#8A67EA" fill-rule="nonzero" opacity=".001"/>
    <circle cx="118.5" cy="92.5" r="52.5" stroke="#ECEEF1" stroke-width="1.7"/>
    <circle cx="119.5" cy="91.5" r="26.5" stroke="#ECEEF1" stroke-width="1.7"/>
    <circle cx="127" cy="91" r="39" stroke="#ECEEF1" stroke-width="1.7"/>
    <circle cx="127" cy="91" r="13" stroke="#ECEEF1" stroke-width="1.7"/>
  </g>
</svg>
