<svg xmlns="http://www.w3.org/2000/svg" width="174" height="143" viewBox="35 25 109 96">
  <g fill="none" fill-rule="evenodd">
    <circle cx="149.007" cy="101.505" r="1.41" fill="#9B7DED" fill-rule="nonzero" opacity=".001"/>
    <circle cx="150.651" cy="70.31" r="1.436" fill="#A78DEF" fill-rule="nonzero" opacity=".039"/>
    <circle cx="108.062" cy="108.062" r="2.062" fill="#9B7EED" fill-rule="nonzero" opacity=".004"/>
    <circle cx="109.222" cy="64.222" r="2.222" fill="#9B7EED" fill-rule="nonzero" opacity=".232"/>
    <circle cx="130.165" cy="96.054" r="1.575" fill="#8763EA" fill-rule="nonzero" opacity=".025"/>
    <circle cx="128.829" cy="103.829" r="2.829" fill="#9170EC" fill-rule="nonzero" opacity=".212"/>
    <circle cx="153.741" cy="73.741" r="1.741" fill="#8F6DEB" fill-rule="nonzero" opacity=".403"/>
    <circle cx="25.033" cy="53.033" r="1.033" fill="#9170EC" fill-rule="nonzero" opacity=".095"/>
    <circle cx="82.258" cy="89.258" r="1.258" fill="#9576EC" fill-rule="nonzero" opacity=".17"/>
    <circle cx="149.946" cy="35.262" r="1.344" fill="#8B68EA" fill-rule="nonzero" opacity=".062"/>
    <circle cx="85.547" cy="83.547" r="2.547" fill="#8D6BEB" fill-rule="nonzero" opacity=".573"/>
    <circle cx="84.745" cy="123.745" r="1.745" fill="#8A67EA" fill-rule="nonzero" opacity=".904"/>
    <circle cx="141.356" cy="68.356" r="2.356" fill="#9C7FED" fill-rule="nonzero" opacity=".158"/>
    <circle cx="147.356" cy="71.356" r="2.356" fill="#9C7FED" fill-rule="nonzero" opacity=".158"/>
    <circle cx="92.669" cy="84.669" r="1.669" fill="#9B7DED" fill-rule="nonzero" opacity=".588"/>
    <circle cx="123.928" cy="24.565" r="2.521" fill="#A88EF0" fill-rule="nonzero" opacity=".001"/>
    <circle cx="115.303" cy="65.303" r="2.303" fill="#9E81EE" fill-rule="nonzero" opacity=".41"/>
    <circle cx="84.165" cy="20.165" r="1.165" fill="#8662EA" fill-rule="nonzero" opacity=".295"/>
    <circle cx="97.671" cy="84.671" r="2.671" fill="#9C7EED" fill-rule="nonzero" opacity=".061"/>
    <circle cx="103.653" cy="87.653" r="2.653" fill="#8864EA" fill-rule="nonzero" opacity=".05"/>
    <circle cx="122.479" cy="79.928" r="2.079" fill="#A286EF" fill-rule="nonzero" opacity="0"/>
    <circle cx="156.617" cy="79.617" r="1.617" fill="#9271EC" fill-rule="nonzero" opacity=".166"/>
    <circle cx="68.237" cy="79.237" r="1.237" fill="#8B68EA" fill-rule="nonzero" opacity=".095"/>
    <circle cx="107.269" cy="54.652" r="2.39" fill="#8C69EB" fill-rule="nonzero" opacity=".036"/>
    <circle cx="123.737" cy="32.737" r="2.737" fill="#9271EC" fill-rule="nonzero" opacity=".058"/>
    <circle cx="67.449" cy="84.314" r="2.169" fill="#A58AEF" fill-rule="nonzero" opacity=".015"/>
    <circle cx="152.828" cy="82.828" r="2.828" fill="#8D6CEB" fill-rule="nonzero" opacity=".003"/>
    <circle cx="106.638" cy="5.638" r="1.638" fill="#9171EC" fill-rule="nonzero" opacity=".587"/>
    <circle cx="57.781" cy="62.105" r="1.551" fill="#8C6AEB" fill-rule="nonzero" opacity=".025"/>
    <circle cx="142.046" cy="38.046" r="1.046" fill="#A387EF" fill-rule="nonzero" opacity="0"/>
    <circle cx="37.013" cy="87.013" r="1.013" fill="#8E6CEB" fill-rule="nonzero" opacity=".081"/>
    <circle cx="67.799" cy="134.799" r="1.799" fill="#A58AEF" fill-rule="nonzero" opacity=".539"/>
    <circle cx="24.67" cy="32.67" r="2.67" fill="#A387EF" fill-rule="nonzero" opacity=".037"/>
    <circle cx="76.297" cy="21.297" r="1.297" fill="#9F82EE" fill-rule="nonzero" opacity=".26"/>
    <circle cx="84.482" cy="101.482" r="2.482" fill="#8865EA" fill-rule="nonzero" opacity=".938"/>
    <circle cx="52.992" cy="96.992" r="1.992" fill="#9E81EE" fill-rule="nonzero" opacity=".024"/>
    <circle cx="140.961" cy="18.961" r="1.961" fill="#A78DEF" fill-rule="nonzero" opacity=".016"/>
    <circle cx="76.567" cy="32.567" r="2.567" fill="#9778ED" fill-rule="nonzero" opacity=".299"/>
    <circle cx="71.567" cy="26.567" r="2.567" fill="#9778ED" fill-rule="nonzero" opacity=".299"/>
    <circle cx="62.916" cy="70.916" r="1.916" fill="#9E81EE" fill-rule="nonzero" opacity=".78"/>
    <circle cx="97.264" cy="4.264" r="2.264" fill="#8966EA" fill-rule="nonzero" opacity=".109"/>
    <circle cx="87.29" cy="91.29" r="2.29" fill="#9777EC" fill-rule="nonzero" opacity=".807"/>
    <circle cx="93.825" cy="75.825" r="2.825" fill="#A083EE" fill-rule="nonzero" opacity=".763"/>
    <circle cx="99.825" cy="67.825" r="2.825" fill="#A083EE" fill-rule="nonzero" opacity=".763"/>
    <circle cx="52.811" cy="67.811" r="2.811" fill="#8D6AEB" fill-rule="nonzero" opacity=".977"/>
    <circle cx="32.914" cy="42.781" r="1.972" fill="#8D6AEB" fill-rule="nonzero" opacity=".025"/>
    <circle cx="84.899" cy="73.899" r="2.899" fill="#8B69EB" fill-rule="nonzero" opacity=".897"/>
    <circle cx="37.226" cy="127.387" r="1.901" fill="#8D6BEB" fill-rule="nonzero" opacity=".023"/>
    <circle cx="41.661" cy="74.34" r="2.215" fill="#A083EE" fill-rule="nonzero" opacity=".037"/>
    <circle cx="24.107" cy="69.043" r="1.079" fill="#8966EA" fill-rule="nonzero" opacity=".063"/>
    <circle cx="129.402" cy="131.402" r="2.402" fill="#9372EC" fill-rule="nonzero" opacity=".733"/>
    <circle cx="68.402" cy="92.402" r="2.402" fill="#9372EC" fill-rule="nonzero" opacity=".733"/>
    <circle cx="46.402" cy="95.402" r="2.402" fill="#9372EC" fill-rule="nonzero" opacity=".733"/>
    <circle cx="32.402" cy="91.402" r="2.402" fill="#9372EC" fill-rule="nonzero" opacity=".733"/>
    <circle cx="56.128" cy="114.316" r="2.98" fill="#9E81EE" fill-rule="nonzero" opacity=".028"/>
    <circle cx="34.84" cy="42.84" r="1.84" fill="#9A7CED" fill-rule="nonzero" opacity=".082"/>
    <circle cx="19.503" cy="21.006" r="1.01" fill="#9676EC" fill-rule="nonzero" opacity="0"/>
    <circle cx="58.368" cy="25.368" r="1.368" fill="#9676EC" fill-rule="nonzero" opacity=".006"/>
    <circle cx="30.666" cy="49.666" r="1.666" fill="#9F82EE" fill-rule="nonzero" opacity=".091"/>
    <circle cx="46.624" cy="70.624" r="2.624" fill="#9372EC" fill-rule="nonzero" opacity=".202"/>
    <circle cx="155.694" cy="34.694" r="1.694" fill="#9576EC" fill-rule="nonzero" opacity=".121"/>
    <circle cx="42.713" cy="58.713" r="1.713" fill="#9D7FEE" fill-rule="nonzero" opacity=".307"/>
    <circle cx="73.468" cy="123.445" r="1.345" fill="#9170EB" fill-rule="nonzero" opacity=".004"/>
    <circle cx="53.245" cy="96.878" r="2.08" fill="#9778ED" fill-rule="nonzero" opacity=".074"/>
    <circle cx="29.423" cy="34.423" r="1.423" fill="#A083EE" fill-rule="nonzero" opacity=".229"/>
    <circle cx="90.701" cy="106.701" r="1.701" fill="#9C7EED" fill-rule="nonzero" opacity=".643"/>
    <circle cx="90.736" cy="17.736" r="2.736" fill="#8D6AEB" fill-rule="nonzero" opacity=".296"/>
    <circle cx="87.92" cy="22.92" r="1.92" fill="#8965EA" fill-rule="nonzero" opacity=".016"/>
    <circle cx="69.047" cy="74.047" r="2.047" fill="#8C6AEB" fill-rule="nonzero" opacity=".267"/>
    <circle cx="103.258" cy="39.258" r="1.258" fill="#9474EC" fill-rule="nonzero" opacity=".079"/>
    <circle cx="72.37" cy="37.37" r="2.37" fill="#8E6CEB" fill-rule="nonzero" opacity=".035"/>
    <circle cx="119.251" cy="62.251" r="1.251" fill="#A387EF" fill-rule="nonzero" opacity=".209"/>
    <circle cx="72.717" cy="11.717" r="1.717" fill="#9E81EE" fill-rule="nonzero" opacity="0"/>
    <circle cx="52.144" cy="74.144" r="2.144" fill="#9575EC" fill-rule="nonzero" opacity=".447"/>
    <circle cx="61.942" cy="137.942" r="1.942" fill="#9373EC" fill-rule="nonzero" opacity=".341"/>
    <circle cx="37.555" cy="104.555" r="1.555" fill="#9373EC" fill-rule="nonzero" opacity=".011"/>
    <circle cx="55.399" cy="130.399" r="1.399" fill="#997BED" fill-rule="nonzero" opacity=".086"/>
    <circle cx="35.88" cy="75.418" r="1.166" fill="#8966EA" fill-rule="nonzero" opacity=".065"/>
    <circle cx="45.118" cy="24.986" r="2.892" fill="#906FEB" fill-rule="nonzero" opacity="0"/>
    <circle cx="60.435" cy="97.577" r="2.7" fill="#8763EA" fill-rule="nonzero" opacity=".033"/>
    <circle cx="55.789" cy="68.855" r="1.396" fill="#8864EA" fill-rule="nonzero" opacity=".001"/>
    <circle cx="70.874" cy="17.238" r="1.888" fill="#8966EA" fill-rule="nonzero" opacity=".432"/>
    <circle cx="79.874" cy="21.238" r="1.888" fill="#8966EA" fill-rule="nonzero" opacity=".432"/>
    <circle cx="81.867" cy="65.23" r="2.895" fill="#9A7CED" fill-rule="nonzero" opacity=".832"/>
    <circle cx="109.867" cy="95.23" r="2.895" fill="#9A7CED" fill-rule="nonzero" opacity=".832"/>
    <circle cx="126.867" cy="64.23" r="2.895" fill="#9A7CED" fill-rule="nonzero" opacity=".832"/>
    <circle cx="45.096" cy="52.832" r="2.656" fill="#987AED" fill-rule="nonzero" opacity=".002"/>
    <circle cx="70.57" cy="81.254" r="1.027" fill="#8E6CEB" fill-rule="nonzero" opacity=".564"/>
    <circle cx="171.736" cy="80.099" r="1.027" fill="#8E6CEB" fill-rule="nonzero" opacity=".564"/>
    <circle cx="42.506" cy="86.87" r="2.256" fill="#A184EE" fill-rule="nonzero" opacity=".08"/>
    <circle cx="5.506" cy="78.87" r="2.256" fill="#A184EE" fill-rule="nonzero" opacity=".08"/>
    <circle cx="24.506" cy="82.87" r="2.256" fill="#A184EE" fill-rule="nonzero" opacity=".08"/>
    <circle cx="79.091" cy="98.442" r="2.729" fill="#906FEB" fill-rule="nonzero" opacity=".045"/>
    <circle cx="99.901" cy="52.264" r="2.862" fill="#9575EC" fill-rule="nonzero" opacity=".136"/>
    <circle cx="86.106" cy="26.469" r="2.657" fill="#9272EC" fill-rule="nonzero" opacity=".434"/>
    <circle cx="79.106" cy="48.469" r="2.657" fill="#9272EC" fill-rule="nonzero" opacity=".434"/>
    <circle cx="71.106" cy="50.469" r="2.657" fill="#9272EC" fill-rule="nonzero" opacity=".434"/>
    <circle cx="98.65" cy="93.678" r="2.034" fill="#8E6DEB" fill-rule="nonzero" opacity=".594"/>
    <circle cx="115.844" cy="125.207" r="1.919" fill="#8C6AEB" fill-rule="nonzero" opacity=".582"/>
    <circle cx="77.632" cy="56.996" r="2.13" fill="#8D6AEB" fill-rule="nonzero" opacity=".936"/>
    <circle cx="71.632" cy="36.996" r="2.13" fill="#8D6AEB" fill-rule="nonzero" opacity=".936"/>
    <circle cx="79.106" cy="48.469" r="2.657" fill="#9272EC" fill-rule="nonzero" opacity=".434"/>
    <circle cx="79.106" cy="48.469" r="2.657" fill="#9272EC" fill-rule="nonzero" opacity=".434"/>
    <circle cx="85.023" cy="16.386" r="1.74" fill="#9474EC" fill-rule="nonzero" opacity=".925"/>
    <circle cx="64.807" cy="27.17" r="1.956" fill="#8763EA" fill-rule="nonzero" opacity=".065"/>
    <circle cx="114.218" cy="42.793" r="1.387" fill="#9A7BED" fill-rule="nonzero" opacity=".003"/>
    <circle cx="111.001" cy="38.364" r="2.762" fill="#8A67EA" fill-rule="nonzero" opacity=".367"/>
    <circle cx="143.888" cy="41.393" r="1.231" fill="#A58AEF" fill-rule="nonzero" opacity=".028"/>
    <circle cx="127.853" cy="25.136" r="2.56" fill="#8A67EA" fill-rule="nonzero" opacity=".024"/>
    <circle cx="161.16" cy="68.073" r="1.56" fill="#9879ED" fill-rule="nonzero" opacity=".015"/>
    <circle cx="105.59" cy="46.954" r="2.172" fill="#9879ED" fill-rule="nonzero" opacity=".543"/>
    <circle cx="104.59" cy="84.954" r="2.172" fill="#9879ED" fill-rule="nonzero" opacity=".543"/>
    <circle cx="113.59" cy="89.954" r="2.172" fill="#9879ED" fill-rule="nonzero" opacity=".543"/>
    <circle cx="121.59" cy="98.954" r="2.172" fill="#9879ED" fill-rule="nonzero" opacity=".543"/>
    <circle cx="170.007" cy="83.396" r="2.708" fill="#9B7DED" fill-rule="nonzero" opacity=".009"/>
    <circle cx="136.995" cy="41.358" r="2.768" fill="#9474EC" fill-rule="nonzero" opacity=".094"/>
    <circle cx="149.521" cy="85.612" r="2.883" fill="#9B7DED" fill-rule="nonzero" opacity=".009"/>
    <circle cx="155.915" cy="45.278" r="2.848" fill="#9474EC" fill-rule="nonzero" opacity=".055"/>
    <circle cx="128.818" cy="30.181" r="1.945" fill="#8C69EB" fill-rule="nonzero" opacity=".086"/>
    <circle cx="102.271" cy="60.634" r="2.492" fill="#9B7EED" fill-rule="nonzero" opacity=".714"/>
    <circle cx="85.328" cy="12.692" r="1.434" fill="#A489EF" fill-rule="nonzero" opacity=".204"/>
    <circle cx="160.114" cy="35.477" r="1.649" fill="#9B7DED" fill-rule="nonzero" opacity=".233"/>
    <circle cx="26.148" cy="47.512" r="1.614" fill="#9474EC" fill-rule="nonzero" opacity=".771"/>
    <circle cx="169.188" cy="51.552" r="1.715" fill="#8C69EB" fill-rule="nonzero" opacity="0"/>
    <circle cx="90.945" cy="66.308" r="2.818" fill="#A58AEF" fill-rule="nonzero" opacity=".947"/>
    <circle cx="145.853" cy="25.216" r="1.91" fill="#8C6AEB" fill-rule="nonzero" opacity=".254"/>
    <circle cx="160.853" cy="30.216" r="1.91" fill="#8C6AEB" fill-rule="nonzero" opacity=".254"/>
    <circle cx="145.853" cy="41.216" r="1.91" fill="#8C6AEB" fill-rule="nonzero" opacity=".254"/>
    <circle cx="117.764" cy="36.128" r="1.998" fill="#8B68EA" fill-rule="nonzero" opacity=".719"/>
    <circle cx="146.764" cy="32.128" r="1.998" fill="#8B68EA" fill-rule="nonzero" opacity=".719"/>
    <circle cx="81.427" cy="23.79" r="2.336" fill="#8B68EA" fill-rule="nonzero" opacity=".076"/>
    <circle cx="121.436" cy="131.286" r="2.384" fill="#8763EA" fill-rule="nonzero" opacity=".144"/>
    <circle cx="131.341" cy="116.448" r="1.698" fill="#906FEB" fill-rule="nonzero" opacity=".594"/>
    <circle cx="153.684" cy="69.472" r="1.9" fill="#9F82EE" fill-rule="nonzero" opacity=".15"/>
    <circle cx="131.084" cy="110.699" r="2.154" fill="#9B7DED" fill-rule="nonzero" opacity=".251"/>
    <circle cx="116.501" cy="131.396" r="1.601" fill="#9778ED" fill-rule="nonzero" opacity=".27"/>
    <circle cx="128.018" cy="121.804" r="2.664" fill="#A387EF" fill-rule="nonzero" opacity=".361"/>
    <circle cx="109.806" cy="83.319" r="2.262" fill="#8F6EEB" fill-rule="nonzero" opacity=".804"/>
    <circle cx="142.068" cy="36.205" r="1.099" fill="#A184EE" fill-rule="nonzero" opacity=".234"/>
    <circle cx="122.954" cy="125.709" r="1.608" fill="#A185EE" fill-rule="nonzero" opacity=".233"/>
    <circle cx="130.501" cy="33.708" r="2.267" fill="#9C7EED" fill-rule="nonzero" opacity=".006"/>
    <circle cx="115.072" cy="42.374" r="1.182" fill="#8A68EA" fill-rule="nonzero" opacity=".876"/>
    <circle cx="41.353" cy="65.842" r="2.632" fill="#9778ED" fill-rule="nonzero" opacity=".952"/>
    <circle cx="125.446" cy="113.685" r="1.332" fill="#A488EF" fill-rule="nonzero" opacity=".218"/>
    <circle cx="97.193" cy="121.354" r="1.485" fill="#906FEB" fill-rule="nonzero" opacity=".382"/>
    <circle cx="16.431" cy="88.674" r="1.485" fill="#906FEB" fill-rule="nonzero" opacity=".382"/>
    <circle cx="57.137" cy="111.51" r="1.285" fill="#8A67EA" fill-rule="nonzero" opacity=".076"/>
    <circle cx="67.001" cy="80.056" r="2.695" fill="#A184EE" fill-rule="nonzero" opacity=".478"/>
    <circle cx="75.126" cy="93.204" r="2.695" fill="#A184EE" fill-rule="nonzero" opacity=".478"/>
    <circle cx="80.072" cy="116.986" r="1.217" fill="#9E81EE" fill-rule="nonzero" opacity=".068"/>
    <circle cx="104.741" cy="102.992" r="1.848" fill="#8763EA" fill-rule="nonzero" opacity=".079"/>
    <circle cx="151.372" cy="76.448" r="1.217" fill="#9779ED" fill-rule="nonzero" opacity=".439"/>
    <circle cx="76.319" cy="97.034" r="2.007" fill="#9B7DED" fill-rule="nonzero" opacity=".055"/>
    <circle cx="97.896" cy="62.925" r="2.07" fill="#A184EE" fill-rule="nonzero" opacity=".615"/>
    <circle cx="81.137" cy="41.441" r="1.907" fill="#9271EC" fill-rule="nonzero" opacity=".557"/>
    <circle cx="162.746" cy="71.966" r="2.291" fill="#A185EE" fill-rule="nonzero" opacity=".315"/>
    <circle cx="128.132" cy="95.3" r="1.814" fill="#8864EA" fill-rule="nonzero" opacity=".673"/>
    <circle cx="116.933" cy="86.718" r="1.971" fill="#9271EC" fill-rule="nonzero" opacity=".774"/>
    <circle cx="126.184" cy="60.257" r="1.422" fill="#9D7FEE" fill-rule="nonzero" opacity="0"/>
    <circle cx="172.443" cy="91.487" r="2.131" fill="#906FEB" fill-rule="nonzero" opacity=".471"/>
    <circle cx="158.733" cy="72.216" r="2.438" fill="#9F82EE" fill-rule="nonzero" opacity=".003"/>
    <circle cx="109.744" cy="47.758" r="2.074" fill="#9474EC" fill-rule="nonzero" opacity=".019"/>
    <circle cx="148.467" cy="63.793" r="1.54" fill="#A68BEF" fill-rule="nonzero" opacity=".294"/>
    <circle cx="114.434" cy="52.028" r="2.733" fill="#8D6BEB" fill-rule="nonzero" opacity=".242"/>
    <circle cx="89.693" cy="25.516" r="2.465" fill="#A184EE" fill-rule="nonzero" opacity=".022"/>
    <circle cx="139.382" cy="27.904" r="2.615" fill="#9778ED" fill-rule="nonzero" opacity=".23"/>
    <circle cx="80.495" cy="31.075" r="2.95" fill="#A78DEF" fill-rule="nonzero" opacity=".061"/>
    <circle cx="135.894" cy="70.359" r="1.766" fill="#9F82EE" fill-rule="nonzero" opacity=".285"/>
    <circle cx="67.623" cy="101.262" r="1.285" fill="#8A67EA" fill-rule="nonzero" opacity=".076"/>
    <circle cx="89.008" cy="93.84" r="2.722" fill="#A185EE" fill-rule="nonzero" opacity=".001"/>
    <circle cx="12.271" cy="81.494" r="2.695" fill="#A184EE" fill-rule="nonzero" opacity=".478"/>
    <circle cx="46.03" cy="58.746" r="2.35" fill="#A58AEF" fill-rule="nonzero" opacity="0"/>
    <circle cx="69.014" cy="123.869" r="1.217" fill="#9E81EE" fill-rule="nonzero" opacity=".068"/>
    <circle cx="40.545" cy="53.535" r="1.998" fill="#A185EE" fill-rule="nonzero" opacity=".704"/>
    <circle cx="78.073" cy="80.551" r="2.964" fill="#8A68EA" fill-rule="nonzero" opacity=".908"/>
    <circle cx="43.607" cy="100.406" r="2.007" fill="#9B7DED" fill-rule="nonzero" opacity=".055"/>
    <circle cx="158.998" cy="84.45" r="1.712" fill="#9B7DED" fill-rule="nonzero" opacity=".676"/>
    <circle cx="75.085" cy="64.065" r="1.712" fill="#9B7DED" fill-rule="nonzero" opacity=".676"/>
    <circle cx="84.005" cy="58.641" r="1.712" fill="#9B7DED" fill-rule="nonzero" opacity=".676"/>
    <circle cx="66.022" cy="39.757" r="1.712" fill="#9B7DED" fill-rule="nonzero" opacity=".676"/>
    <circle cx="71.221" cy="57.895" r="1.712" fill="#9B7DED" fill-rule="nonzero" opacity=".676"/>
    <circle cx="66.762" cy="53.88" r="1.712" fill="#9B7DED" fill-rule="nonzero" opacity=".676"/>
    <circle cx="30.125" cy="84.399" r="1.907" fill="#9271EC" fill-rule="nonzero" opacity=".557"/>
    <circle cx="3.369" cy="73.764" r="1.907" fill="#9271EC" fill-rule="nonzero" opacity=".557"/>
    <circle cx="77.567" cy="124.942" r="2.291" fill="#A185EE" fill-rule="nonzero" opacity=".315"/>
    <circle cx="51.687" cy="63.463" r="1.921" fill="#9372EC" fill-rule="nonzero" opacity="0"/>
    <circle cx="24.789" cy="90.66" r="2.131" fill="#906FEB" fill-rule="nonzero" opacity=".471"/>
    <circle cx="52.513" cy="92.748" r="2.131" fill="#906FEB" fill-rule="nonzero" opacity=".471"/>
    <circle cx="41.141" cy="91.928" r="2.131" fill="#906FEB" fill-rule="nonzero" opacity=".471"/>
    <circle cx="61.878" cy="95.797" r="2.131" fill="#906FEB" fill-rule="nonzero" opacity=".471"/>
    <circle cx="49.45" cy="88.339" r="2.904" fill="#9576EC" fill-rule="nonzero" opacity=".856"/>
    <circle cx="72.046" cy="87.154" r="2.904" fill="#9576EC" fill-rule="nonzero" opacity=".856"/>
    <circle cx="42.577" cy="51.781" r="2.335" fill="#A388EF" fill-rule="nonzero" opacity=".018"/>
    <circle cx="71.411" cy="129.068" r="1.477" fill="#9475EC" fill-rule="nonzero" opacity=".362"/>
    <circle cx="55.811" cy="88.109" r="1.477" fill="#9475EC" fill-rule="nonzero" opacity=".362"/>
    <circle cx="55.585" cy="97.325" r="1.477" fill="#9475EC" fill-rule="nonzero" opacity=".362"/>
    <circle cx="69.039" cy="97.328" r="1.477" fill="#9475EC" fill-rule="nonzero" opacity=".362"/>
    <circle cx="19.912" cy="78.661" r="1.477" fill="#9475EC" fill-rule="nonzero" opacity=".362"/>
    <circle cx="76.145" cy="133.926" r="2.95" fill="#A78DEF" fill-rule="nonzero" opacity=".061"/>
    <circle cx="11.156" cy="73.717" r="2.662" fill="#8966EA" fill-rule="nonzero" opacity=".379"/>
    <circle cx="79.33" cy="9.958" r="2.662" fill="#8966EA" fill-rule="nonzero" opacity=".379"/>
    <circle cx="133.491" cy="61.491" r="1.491" fill="#9474EC" fill-rule="nonzero" opacity=".122"/>
    <circle cx="79.706" cy="115.706" r="1.706" fill="#A68BEF" fill-rule="nonzero" opacity=".441"/>
    <circle cx="28.279" cy="42.279" r="2.279" fill="#A88FF0" fill-rule="nonzero" opacity=".171"/>
    <circle cx="122.244" cy="117.244" r="1.244" fill="#8E6CEB" fill-rule="nonzero" opacity=".364"/>
    <circle cx="85.448" cy="108.448" r="2.448" fill="#A387EF" fill-rule="nonzero" opacity=".133"/>
    <circle cx="47.55" cy="60.55" r="2.55" fill="#8966EA" fill-rule="nonzero" opacity=".585"/>
    <circle cx="158.962" cy="74.962" r="1.962" fill="#8763EA" fill-rule="nonzero" opacity=".082"/>
    <circle cx="171.962" cy="83.962" r="1.962" fill="#8763EA" fill-rule="nonzero" opacity=".082"/>
    <circle cx="121.772" cy="44.772" r="2.772" fill="#9C7EED" fill-rule="nonzero" opacity=".504"/>
    <circle cx="131.772" cy="33.772" r="2.772" fill="#9C7EED" fill-rule="nonzero" opacity=".504"/>
    <circle cx="82.03" cy="131.03" r="1.03" fill="#8865EA" fill-rule="nonzero" opacity=".404"/>
    <circle cx="18.767" cy="83.767" r="1.767" fill="#A88EF0" fill-rule="nonzero" opacity=".489"/>
    <circle cx="90.056" cy="112.056" r="1.056" fill="#9D80EE" fill-rule="nonzero" opacity=".773"/>
    <circle cx="30.704" cy="57.704" r="2.704" fill="#916FEB" fill-rule="nonzero" opacity=".461"/>
    <circle cx="26.704" cy="26.704" r="2.704" fill="#916FEB" fill-rule="nonzero" opacity=".461"/>
    <circle cx="63.314" cy="130.314" r="2.314" fill="#9F83EE" fill-rule="nonzero" opacity=".167"/>
    <circle cx="74.341" cy="43.341" r="2.341" fill="#906EEB" fill-rule="nonzero" opacity=".424"/>
    <circle cx="92.013" cy="94.013" r="1.013" fill="#8C69EB" fill-rule="nonzero" opacity=".384"/>
    <circle cx="164.013" cy="33.013" r="1.013" fill="#8C69EB" fill-rule="nonzero" opacity=".384"/>
    <circle cx="117.847" cy="79.847" r="1.847" fill="#9271EC" fill-rule="nonzero" opacity=".166"/>
    <circle cx="131.731" cy="67.731" r="2.731" fill="#9C7EED" fill-rule="nonzero" opacity=".292"/>
    <circle cx="22.131" cy="36.131" r="2.131" fill="#9473EC" fill-rule="nonzero" opacity=".43"/>
    <circle cx="116.954" cy="94.954" r="1.954" fill="#906FEB" fill-rule="nonzero" opacity=".138"/>
    <circle cx="106.4" cy="54.4" r="2.4" fill="#A68CEF" fill-rule="nonzero" opacity=".689"/>
    <circle cx="128.859" cy="39.859" r="2.859" fill="#9576EC" fill-rule="nonzero" opacity=".104"/>
    <circle cx="151.187" cy="38.187" r="1.187" fill="#9879ED" fill-rule="nonzero" opacity=".539"/>
    <circle cx="121.675" cy="104.675" r="1.675" fill="#9575EC" fill-rule="nonzero" opacity=".113"/>
    <circle cx="166.598" cy="78.598" r="2.598" fill="#9A7CED" fill-rule="nonzero" opacity=".184"/>
    <circle cx="117.058" cy="104.058" r="1.058" fill="#9475EC" fill-rule="nonzero" opacity=".531"/>
    <circle cx="137.294" cy="122.294" r="2.294" fill="#8966EA" fill-rule="nonzero" opacity=".097"/>
    <circle cx="170.928" cy="91.928" r="2.928" fill="#A388EF" fill-rule="nonzero" opacity="0"/>
    <circle cx="112.278" cy="104.186" r="1.343" fill="#9C7EED" fill-rule="nonzero" opacity=".249"/>
    <circle cx="146.783" cy="78.783" r="1.783" fill="#9272EC" fill-rule="nonzero" opacity=".287"/>
    <circle cx="132.76" cy="93.548" r="1.881" fill="#A387EF" fill-rule="nonzero" opacity=".005"/>
    <circle cx="152.91" cy="82.687" r="1.012" fill="#9E81EE" fill-rule="nonzero" opacity=".189"/>
    <circle cx="87.772" cy="126.883" r="1.069" fill="#997AED" fill-rule="nonzero" opacity=".002"/>
    <circle cx="123.318" cy="76.443" r="1.123" fill="#A488EF" fill-rule="nonzero" opacity=".012"/>
    <circle cx="137.005" cy="65.371" r="2.401" fill="#A084EE" fill-rule="nonzero" opacity=".103"/>
    <circle cx="101.334" cy="79.64" r="1.404" fill="#A083EE" fill-rule="nonzero" opacity=".702"/>
    <circle cx="140.3" cy="48.14" r="1.099" fill="#9D7FEE" fill-rule="nonzero" opacity=".012"/>
    <circle cx="90.318" cy="97.318" r="1.318" fill="#9474EC" fill-rule="nonzero" opacity=".344"/>
    <circle cx="69.929" cy="118.845" r="1.892" fill="#9E81EE" fill-rule="nonzero" opacity="0"/>
    <circle cx="153.374" cy="27.374" r="2.374" fill="#8864EA" fill-rule="nonzero" opacity=".628"/>
    <circle cx="77.466" cy="72.646" r="1.686" fill="#A78DEF" fill-rule="nonzero" opacity=".691"/>
    <circle cx="111.767" cy="125.721" r="1.554" fill="#9879ED" fill-rule="nonzero" opacity=".01"/>
    <circle cx="44.155" cy="70.258" r="1.671" fill="#8A68EA" fill-rule="nonzero" opacity="0"/>
    <circle cx="96.669" cy="57.334" r="2.565" fill="#A287EF" fill-rule="nonzero" opacity=".431"/>
    <circle cx="63.943" cy="91.942" r="1.704" fill="#9B7DED" fill-rule="nonzero" opacity=".303"/>
    <circle cx="129.983" cy="24.815" r="2.159" fill="#9272EC" fill-rule="nonzero" opacity=".001"/>
    <circle cx="70.618" cy="140.071" r="2.624" fill="#9372EC" fill-rule="nonzero" opacity=".202"/>
    <circle cx="113.694" cy="137.694" r="1.694" fill="#9576EC" fill-rule="nonzero" opacity=".121"/>
    <circle cx="107.591" cy="134.591" r="1.591" fill="#A78DEF" fill-rule="nonzero" opacity=".239"/>
    <circle cx="53.701" cy="135.701" r="1.701" fill="#9C7EED" fill-rule="nonzero" opacity=".643"/>
    <circle cx="56.182" cy="123.182" r="2.182" fill="#997BED" fill-rule="nonzero" opacity=".499"/>
    <circle cx="92.182" cy="9.182" r="2.182" fill="#997BED" fill-rule="nonzero" opacity=".499"/>
    <circle cx="58.85" cy="61.203" r="1.215" fill="#A388EF" fill-rule="nonzero" opacity=".166"/>
    <circle cx="21.215" cy="23.215" r="1.215" fill="#A388EF" fill-rule="nonzero" opacity=".166"/>
    <circle cx="69.188" cy="37.761" r="1.268" fill="#A88EF0" fill-rule="nonzero" opacity=".004"/>
    <circle cx="114.339" cy="59.089" r="1.766" fill="#9C7EED" fill-rule="nonzero" opacity=".907"/>
    <circle cx="46.144" cy="133.144" r="2.144" fill="#9575EC" fill-rule="nonzero" opacity=".447"/>
    <circle cx="89.913" cy="22.658" r="1.729" fill="#906EEB" fill-rule="nonzero" opacity=".001"/>
    <circle cx="108.536" cy="28.604" r="1.034" fill="#9474EC" fill-rule="nonzero" opacity=".924"/>
    <circle cx="126.55" cy="116.385" r="1.119" fill="#8E6CEB" fill-rule="nonzero" opacity=".477"/>
    <circle cx="166.06" cy="87.06" r="2.06" fill="#9F82EE" fill-rule="nonzero" opacity=".256"/>
    <circle cx="42.744" cy="53.166" r="1.51" fill="#8865EA" fill-rule="nonzero" opacity=".089"/>
    <circle cx="63.056" cy="119.056" r="2.056" fill="#8F6EEB" fill-rule="nonzero" opacity=".068"/>
    <circle cx="32.979" cy="30.979" r="1.979" fill="#8D6BEB" fill-rule="nonzero" opacity=".542"/>
    <circle cx="38.204" cy="131.204" r="2.204" fill="#8662EA" fill-rule="nonzero" opacity=".693"/>
    <circle cx="87.204" cy="2.204" r="2.204" fill="#8662EA" fill-rule="nonzero" opacity=".693"/>
    <circle cx="88.707" cy="41.009" r="2.109" fill="#9576EC" fill-rule="nonzero" opacity=".473"/>
    <circle cx="138.658" cy="76.658" r="1.658" fill="#8D6CEB" fill-rule="nonzero" opacity=".71"/>
    <circle cx="28.756" cy="37.482" r="1.159" fill="#8865EA" fill-rule="nonzero" opacity=".133"/>
    <circle cx="5.497" cy="82.991" r="1.497" fill="#8D6BEB" fill-rule="nonzero" opacity=".038"/>
    <circle cx="49.073" cy="126.073" r="2.073" fill="#A58AEF" fill-rule="nonzero" opacity=".159"/>
    <circle cx="41.925" cy="124.915" r="2.779" fill="#8D6BEB" fill-rule="nonzero" opacity="0"/>
    <circle cx="34.247" cy="37.247" r="1.247" fill="#A489EF" fill-rule="nonzero" opacity=".709"/>
    <circle cx="120.685" cy="40.538" r="1.204" fill="#8662EA" fill-rule="nonzero" opacity=".011"/>
    <polygon stroke="#ECEEF1" stroke-width="1.7" points="79 27 122 50.25 122 96.75 79 120 36 96.75 36 50.25"/>
    <polygon stroke="#ECEEF1" stroke-width="1.7" points="100 27 143 50.25 143 96.75 100 120 57 96.75 57 50.25"/>
  </g>
</svg>
