<svg xmlns="http://www.w3.org/2000/svg" width="103" height="47" viewBox="0 0 103 47">

  <g fill-rule="evenodd">
    <path fill-rule="nonzero" fill="#FFF" d="M4.867,26.928 C2.692,26.67 0.922,25.085 0.922,23.315 C0.922,21.324 2.912,19.849 5.088,19.222 L5.088,19.185 C2.987,18.448 1.548,17.047 1.548,14.502 C1.548,11.552 4.498,8.787 8.849,8.787 C10.509,8.787 12.279,9.193 13.422,9.857 L18.805,9.267 L18.51,11.627 L14.823,11.073 L14.786,11.183 C15.597,11.884 16.076,12.917 16.076,14.06 C16.076,17.342 13.053,19.665 8.591,19.665 C7.67,19.665 6.821,19.591 6.047,19.443 C5.088,19.701 4.425,20.402 4.425,21.103 C4.425,21.987 5.273,22.393 7.227,22.393 C8.37,22.393 11.062,22.283 12.463,22.283 C15.745,22.283 18.031,24.126 18.031,27.076 C18.031,31.021 13.717,34.414 7.633,34.414 C2.839,34.414 0.479,33.197 0.479,30.726 C0.479,28.772 2.655,27.776 4.867,26.928 Z M9.55,33.308 C12.537,33.308 14.565,31.722 14.565,29.62 C14.565,27.74 13.311,27.15 10.693,26.965 C9.882,26.855 8.186,26.928 5.789,27.039 C4.719,27.519 4.425,28.477 4.425,29.805 C4.425,31.795 6.342,33.307 9.55,33.307 L9.55,33.308 Z M8.813,18.928 C10.361,18.928 11.062,17.71 11.062,14.355 C11.062,11.184 10.214,9.598 8.812,9.598 C7.301,9.598 6.674,10.852 6.674,14.318 C6.674,17.526 7.448,18.928 8.813,18.928 Z M31.932,26.007 C30.125,26.007 28.798,24.79 28.539,22.504 L28.429,22.467 C26.696,24.495 25.147,25.97 23.082,25.97 C20.87,25.97 19.063,24.31 19.063,22.209 C19.063,19.333 21.681,17.599 28.539,15.756 L28.576,14.724 C28.687,12.216 27.323,10.262 24.852,10.262 C23.488,10.262 22.898,10.631 22.898,10.999 C22.898,11.258 24.078,12.216 24.078,13.286 C24.078,14.429 23.045,15.461 21.608,15.461 C20.28,15.461 19.174,14.761 19.174,13.47 C19.174,10.741 24.299,8.787 27.986,8.787 C32.226,8.787 34.07,10.594 33.923,14.797 L33.628,21.287 C33.554,22.725 34.108,23.278 34.918,23.278 C35.435,23.278 36.025,22.688 36.504,22.135 L36.873,22.541 C35.803,23.905 33.923,26.007 31.932,26.007 Z M26.29,22.836 C27.175,22.836 27.876,22.246 28.355,21.693 L28.576,16.493 C25.184,17.415 24.152,18.669 24.152,20.439 C24.152,21.914 24.962,22.836 26.29,22.836 Z M37.315,25.527 L37.463,24.9 L37.979,24.864 C39.049,24.79 39.269,24.679 39.269,24.237 L39.269,5.874 C39.269,4.067 39.011,3.735 37.979,3.404 L37.02,2.998 L37.094,2.556 L44.653,0.49 L44.653,24.273 C44.653,24.604 44.948,24.752 46.165,24.863 L46.607,24.899 L46.717,25.526 L37.315,25.526 L37.315,25.527 Z M61.135,26.007 C59.328,26.007 58.001,24.79 57.743,22.504 L57.633,22.467 C55.899,24.495 54.35,25.97 52.286,25.97 C50.073,25.97 48.266,24.31 48.266,22.209 C48.266,19.333 50.884,17.599 57.743,15.756 L57.78,14.724 C57.89,12.216 56.526,10.262 54.055,10.262 C52.691,10.262 52.101,10.631 52.101,10.999 C52.101,11.258 53.281,12.216 53.281,13.286 C53.281,14.429 52.249,15.461 50.811,15.461 C49.483,15.461 48.377,14.761 48.377,13.47 C48.377,10.741 53.502,8.787 57.19,8.787 C61.43,8.787 63.274,10.594 63.126,14.797 L62.831,21.287 C62.757,22.725 63.311,23.278 64.121,23.278 C64.638,23.278 65.228,22.688 65.707,22.135 L66.076,22.541 C65.006,23.905 63.126,26.007 61.135,26.007 Z M55.493,22.836 C56.378,22.836 57.079,22.246 57.558,21.693 L57.78,16.493 C54.387,17.415 53.355,18.669 53.355,20.439 C53.355,21.914 54.166,22.836 55.493,22.836 Z M65.486,25.527 L65.596,24.9 L66.334,24.716 C68.141,24.347 68.694,23.61 70.869,20.918 L72.897,18.521 L68.989,12.474 C67.919,10.889 67.145,10.225 66.223,10.114 L65.597,9.967 L65.486,9.34 L76.032,9.34 L75.921,9.967 L75.368,10.041 C74.188,10.225 74.298,10.926 74.925,11.884 L76.953,15.203 L77.027,15.203 L78.17,13.765 C80.42,10.778 80.42,10.262 78.06,10.041 L77.654,9.967 L77.544,9.34 L84.475,9.34 L84.365,9.967 L83.554,10.188 C81.857,10.557 81.231,11.258 79.055,13.912 L77.47,15.83 L81.71,22.393 C82.742,24.053 83.59,24.605 84.254,24.753 L84.844,24.9 L84.992,25.527 L74.667,25.527 L74.741,24.9 L75.294,24.827 C76.584,24.717 76.4,23.979 75.774,23.02 L73.414,19.148 L73.34,19.148 L71.791,21.103 C69.468,24.053 69.616,24.605 71.939,24.827 L72.307,24.9 L72.381,25.527 L65.486,25.527 Z M87.536,35.04 C86.172,35.04 84.66,34.192 84.66,32.46 C84.66,31.243 85.582,30.063 87.057,30.063 C88.642,30.063 89.527,31.243 89.674,32.349 C90.596,32.127 91.039,31.427 91.702,29.546 L92.882,26.338 L92.256,26.338 L85.803,11.848 C85.213,10.594 84.881,10.298 83.812,10.114 L83.185,9.967 L83.075,9.34 L93.435,9.34 L93.325,9.967 L92.514,10.114 C91.26,10.299 91.002,10.668 91.481,11.664 L95.095,20.365 L97.344,14.134 C98.45,11.074 98.155,10.52 96.201,10.188 L95.427,9.967 L95.316,9.34 L102.137,9.34 L102.027,9.967 L101.216,10.114 C99.814,10.262 99.556,10.815 98.266,14.207 L94.21,25.011 L92.403,30.211 C91.26,33.602 89.711,35.041 87.536,35.041 L87.536,35.04 Z"/>
    <path fill="#FFF" d="M20.862,46 L20.6709,44.4439 C25.0389,41.3317 27.0591,40.0759 27.0591,37.6462 C27.0591,36.0082 25.8579,34.8616 24.2745,34.8616 C22.8549,34.8616 21.7902,35.5168 21.0531,36.9091 L20.7255,36.7453 C21.7356,33.8788 24.1107,32.3773 26.8134,32.3773 C29.3523,32.3773 31.1541,33.8515 31.1541,35.9263 C31.1541,38.4925 28.2876,39.994 23.6466,43.0516 L23.6466,43.1608 L29.3523,43.1881 C31.0449,43.1881 31.5636,42.5056 32.4918,40.4308 L32.8194,39.8302 L33.3381,39.8848 L32.1369,46 L20.862,46 Z M41.7646,46.3549 C37.6696,46.3549 34.7212,43.4611 34.7212,39.4207 C34.7212,35.353 38.1064,32.35 42.1741,32.35 C46.2964,32.35 49.2175,35.2711 49.2175,39.2842 C49.2175,43.3792 45.8869,46.3549 41.7646,46.3549 Z M41.9284,45.7543 C43.7029,45.7543 45.0133,43.0789 45.0133,39.5845 C45.0133,34.9708 43.9213,32.9233 41.983,32.9233 C40.2085,32.9233 38.9254,35.5168 38.9254,39.1204 C38.9254,43.9525 40.0174,45.7543 41.9284,45.7543 Z M50.5733,46 L50.3822,44.4439 C54.7502,41.3317 56.7704,40.0759 56.7704,37.6462 C56.7704,36.0082 55.5692,34.8616 53.9858,34.8616 C52.5662,34.8616 51.5015,35.5168 50.7644,36.9091 L50.4368,36.7453 C51.4469,33.8788 53.822,32.3773 56.5247,32.3773 C59.0636,32.3773 60.8654,33.8515 60.8654,35.9263 C60.8654,38.4925 57.9989,39.994 53.3579,43.0516 L53.3579,43.1608 L59.0636,43.1881 C60.7562,43.1881 61.2749,42.5056 62.2031,40.4308 L62.5307,39.8302 L63.0494,39.8848 L61.8482,46 L50.5733,46 Z M71.4759,46.3549 C67.3809,46.3549 64.4325,43.4611 64.4325,39.4207 C64.4325,35.353 67.8177,32.35 71.8854,32.35 C76.0077,32.35 78.9288,35.2711 78.9288,39.2842 C78.9288,43.3792 75.5982,46.3549 71.4759,46.3549 Z M71.6397,45.7543 C73.4142,45.7543 74.7246,43.0789 74.7246,39.5845 C74.7246,34.9708 73.6326,32.9233 71.6943,32.9233 C69.9198,32.9233 68.6367,35.5168 68.6367,39.1204 C68.6367,43.9525 69.7287,45.7543 71.6397,45.7543 Z"/>
  </g>
</svg>
