<svg xmlns="http://www.w3.org/2000/svg" width="109" height="52" viewBox="0 0 109 52">
  <path fill="#FFF" fill-rule="evenodd" d="M5.221,28.482 C2.92,28.209 1.048,26.532 1.048,24.66 C1.048,22.554 3.154,20.994 5.455,20.331 L5.455,20.292 C3.232,19.512 1.711,18.03 1.711,15.339 C1.711,12.219 4.831,9.294 9.433,9.294 C11.188,9.294 13.06,9.723 14.269,10.425 L19.963,9.801 L19.651,12.297 L15.751,11.712 L15.712,11.829 C16.57,12.57 17.077,13.662 17.077,14.871 C17.077,18.342 13.879,20.799 9.16,20.799 C8.185,20.799 7.288,20.721 6.469,20.565 C5.455,20.838 4.753,21.579 4.753,22.32 C4.753,23.256 5.65,23.685 7.717,23.685 C8.926,23.685 11.773,23.568 13.255,23.568 C16.726,23.568 19.144,25.518 19.144,28.638 C19.144,32.811 14.581,36.399 8.146,36.399 C3.076,36.399 0.58,35.112 0.58,32.499 C0.58,30.432 2.881,29.379 5.221,28.482 Z M10.174,35.229 C13.333,35.229 15.478,33.552 15.478,31.329 C15.478,29.34 14.152,28.716 11.383,28.521 C10.525,28.404 8.731,28.482 6.196,28.599 C5.065,29.106 4.753,30.12 4.753,31.524 C4.753,33.63 6.781,35.229 10.174,35.229 Z M9.394,20.019 C11.032,20.019 11.773,18.732 11.773,15.183 C11.773,11.829 10.876,10.152 9.394,10.152 C7.795,10.152 7.132,11.478 7.132,15.144 C7.132,18.537 7.951,20.019 9.394,20.019 Z M33.847,27.507 C31.936,27.507 30.532,26.22 30.259,23.802 L30.142,23.763 C28.309,25.908 26.671,27.468 24.487,27.468 C22.147,27.468 20.236,25.713 20.236,23.49 C20.236,20.448 23.005,18.615 30.259,16.665 L30.298,15.573 C30.415,12.921 28.972,10.854 26.359,10.854 C24.916,10.854 24.292,11.244 24.292,11.634 C24.292,11.907 25.54,12.921 25.54,14.052 C25.54,15.261 24.448,16.353 22.927,16.353 C21.523,16.353 20.353,15.612 20.353,14.247 C20.353,11.361 25.774,9.294 29.674,9.294 C34.159,9.294 36.109,11.205 35.953,15.651 L35.641,22.515 C35.563,24.036 36.148,24.621 37.006,24.621 C37.552,24.621 38.176,23.997 38.683,23.412 L39.073,23.841 C37.942,25.284 35.953,27.507 33.847,27.507 Z M27.88,24.153 C28.816,24.153 29.557,23.529 30.064,22.944 L30.298,17.445 C26.71,18.42 25.618,19.746 25.618,21.618 C25.618,23.178 26.476,24.153 27.88,24.153 Z M39.541,27 L39.697,26.337 L40.243,26.298 C41.374,26.22 41.608,26.103 41.608,25.635 L41.608,6.213 C41.608,4.302 41.335,3.951 40.243,3.6 L39.229,3.171 L39.307,2.703 L47.302,0.519 L47.302,25.674 C47.302,26.025 47.614,26.181 48.901,26.298 L49.369,26.337 L49.486,27 L39.541,27 Z M64.735,27.507 C62.824,27.507 61.42,26.22 61.147,23.802 L61.03,23.763 C59.197,25.908 57.559,27.468 55.375,27.468 C53.035,27.468 51.124,25.713 51.124,23.49 C51.124,20.448 53.893,18.615 61.147,16.665 L61.186,15.573 C61.303,12.921 59.86,10.854 57.247,10.854 C55.804,10.854 55.18,11.244 55.18,11.634 C55.18,11.907 56.428,12.921 56.428,14.052 C56.428,15.261 55.336,16.353 53.815,16.353 C52.411,16.353 51.241,15.612 51.241,14.247 C51.241,11.361 56.662,9.294 60.562,9.294 C65.047,9.294 66.997,11.205 66.841,15.651 L66.529,22.515 C66.451,24.036 67.036,24.621 67.894,24.621 C68.44,24.621 69.064,23.997 69.571,23.412 L69.961,23.841 C68.83,25.284 66.841,27.507 64.735,27.507 Z M58.768,24.153 C59.704,24.153 60.445,23.529 60.952,22.944 L61.186,17.445 C57.598,18.42 56.506,19.746 56.506,21.618 C56.506,23.178 57.364,24.153 58.768,24.153 Z M69.337,27 L69.454,26.337 L70.234,26.142 C72.145,25.752 72.73,24.972 75.031,22.125 L77.176,19.59 L73.042,13.194 C71.911,11.517 71.092,10.815 70.117,10.698 L69.454,10.542 L69.337,9.879 L80.491,9.879 L80.374,10.542 L79.789,10.62 C78.541,10.815 78.658,11.556 79.321,12.57 L81.466,16.08 L81.544,16.08 L82.753,14.559 C85.132,11.4 85.132,10.854 82.636,10.62 L82.207,10.542 L82.09,9.879 L89.422,9.879 L89.305,10.542 L88.447,10.776 C86.653,11.166 85.99,11.907 83.689,14.715 L82.012,16.743 L86.497,23.685 C87.589,25.44 88.486,26.025 89.188,26.181 L89.812,26.337 L89.968,27 L79.048,27 L79.126,26.337 L79.711,26.259 C81.076,26.142 80.881,25.362 80.218,24.348 L77.722,20.253 L77.644,20.253 L76.006,22.32 C73.549,25.44 73.705,26.025 76.162,26.259 L76.552,26.337 L76.63,27 L69.337,27 Z M92.659,37.062 C91.216,37.062 89.617,36.165 89.617,34.332 C89.617,33.045 90.592,31.797 92.152,31.797 C93.829,31.797 94.765,33.045 94.921,34.215 C95.896,33.981 96.364,33.24 97.066,31.251 L98.314,27.858 L97.651,27.858 L90.826,12.531 C90.202,11.205 89.851,10.893 88.72,10.698 L88.057,10.542 L87.94,9.879 L98.899,9.879 L98.782,10.542 L97.924,10.698 C96.598,10.893 96.325,11.283 96.832,12.336 L100.654,21.54 L103.033,14.949 C104.203,11.712 103.891,11.127 101.824,10.776 L101.005,10.542 L100.888,9.879 L108.103,9.879 L107.986,10.542 L107.128,10.698 C105.646,10.854 105.373,11.439 104.008,15.027 L99.718,26.454 L97.807,31.953 C96.598,35.541 94.96,37.062 92.659,37.062 Z M25.618,51 L25.436,49.518 C29.596,46.554 31.52,45.358 31.52,43.044 C31.52,41.484 30.376,40.392 28.868,40.392 C27.516,40.392 26.502,41.016 25.8,42.342 L25.488,42.186 C26.45,39.456 28.712,38.026 31.286,38.026 C33.704,38.026 35.42,39.43 35.42,41.406 C35.42,43.85 32.69,45.28 28.27,48.192 L28.27,48.296 L33.704,48.322 C35.316,48.322 35.81,47.672 36.694,45.696 L37.006,45.124 L37.5,45.176 L36.356,51 L25.618,51 Z M45.43,51.338 C41.53,51.338 38.722,48.582 38.722,44.734 C38.722,40.86 41.946,38 45.82,38 C49.746,38 52.528,40.782 52.528,44.604 C52.528,48.504 49.356,51.338 45.43,51.338 Z M45.586,50.766 C47.276,50.766 48.524,48.218 48.524,44.89 C48.524,40.496 47.484,38.546 45.638,38.546 C43.948,38.546 42.726,41.016 42.726,44.448 C42.726,49.05 43.766,50.766 45.586,50.766 Z M53.724,51 L53.802,50.506 L54.556,50.402 C55.258,50.35 55.622,50.272 55.622,49.96 L55.622,39.95 L53.282,39.716 L53.36,39.274 L59.6,38.052 L59.6,49.986 C59.6,50.22 60.042,50.35 60.796,50.402 L61.498,50.506 L61.576,51 L53.724,51 Z M69.246,51.39 C65.658,51.39 63.084,49.726 63.084,47.074 C63.11,45.462 64.748,44.136 66.776,43.642 L66.776,43.616 C64.852,42.784 63.266,41.51 63.292,39.378 C63.292,36.7 65.32,34.36 69.012,34.36 C72.522,34.36 75.018,35.842 74.992,38.286 C74.992,39.976 73.328,41.094 71.326,41.614 L71.326,41.64 C73.536,42.498 75.304,43.928 75.278,46.164 C75.278,48.998 72.886,51.39 69.246,51.39 Z M70.65,41.38 C71.3,40.886 71.534,39.742 71.534,38.728 C71.56,36.57 70.494,34.88 68.908,34.88 C67.374,34.88 66.516,36.128 66.516,37.532 C66.516,39.326 67.894,40.288 70.65,41.38 Z M69.428,50.766 C70.936,50.766 72.08,49.57 72.08,48.114 C72.106,46.19 70.286,45.02 67.478,43.902 C66.828,44.422 66.62,45.462 66.594,46.736 C66.594,48.738 67.712,50.766 69.428,50.766 Z"/>
</svg>
