<svg width="103" height="52" xmlns="http://www.w3.org/2000/svg" xmlns:xlink="http://www.w3.org/1999/xlink" viewBox="0 0 103 52"><defs><path d="M4.867 26.928C2.692 26.67.922 25.085.922 23.315c0-1.991 1.99-3.466 4.166-4.093v-.037c-2.101-.737-3.54-2.138-3.54-4.683 0-2.95 2.95-5.715 7.301-5.715 1.66 0 3.43.406 4.573 1.07l5.383-.59-.295 2.36-3.687-.554-.037.11c.811.701 1.29 1.734 1.29 2.877 0 3.282-3.023 5.605-7.485 5.605-.921 0-1.77-.074-2.544-.222-.959.258-1.622.959-1.622 1.66 0 .884.848 1.29 2.802 1.29 1.143 0 3.835-.11 5.236-.11 3.282 0 5.568 1.843 5.568 4.793 0 3.945-4.314 7.338-10.398 7.338-4.794 0-7.154-1.217-7.154-3.688 0-1.954 2.176-2.95 4.388-3.798zm4.683 6.38c2.987 0 5.015-1.586 5.015-3.688 0-1.88-1.254-2.47-3.872-2.655-.811-.11-2.507-.037-4.904.074-1.07.48-1.364 1.438-1.364 2.766 0 1.99 1.917 3.502 5.125 3.502zm-.737-14.38c1.548 0 2.249-1.218 2.249-4.573 0-3.171-.848-4.757-2.25-4.757-1.511 0-2.138 1.254-2.138 4.72 0 3.208.774 4.61 2.139 4.61zm23.119 7.079c-1.807 0-3.134-1.217-3.393-3.503l-.11-.037c-1.733 2.028-3.282 3.503-5.347 3.503-2.212 0-4.019-1.66-4.019-3.761 0-2.876 2.618-4.61 9.476-6.453l.037-1.032c.111-2.508-1.253-4.462-3.724-4.462-1.364 0-1.954.369-1.954.737 0 .259 1.18 1.217 1.18 2.287 0 1.143-1.033 2.175-2.47 2.175-1.328 0-2.434-.7-2.434-1.991 0-2.729 5.125-4.683 8.812-4.683 4.24 0 6.084 1.807 5.937 6.01l-.295 6.49c-.074 1.438.48 1.991 1.29 1.991.517 0 1.107-.59 1.586-1.143l.369.406c-1.07 1.364-2.95 3.466-4.941 3.466zm-5.642-3.171c.885 0 1.586-.59 2.065-1.143l.221-5.2c-3.392.922-4.424 2.176-4.424 3.946 0 1.475.81 2.397 2.138 2.397zm11.025 2.691l.148-.627.516-.036c1.07-.074 1.29-.185 1.29-.627V5.874c0-1.807-.258-2.139-1.29-2.47l-.959-.406.074-.442L44.653.49v23.783c0 .331.295.479 1.512.59l.442.036.11.627h-9.402zm23.82.48c-1.807 0-3.134-1.217-3.392-3.503l-.11-.037c-1.734 2.028-3.283 3.503-5.347 3.503-2.213 0-4.02-1.66-4.02-3.761 0-2.876 2.618-4.61 9.477-6.453l.037-1.032c.11-2.508-1.254-4.462-3.725-4.462-1.364 0-1.954.369-1.954.737 0 .259 1.18 1.217 1.18 2.287 0 1.143-1.032 2.175-2.47 2.175-1.328 0-2.434-.7-2.434-1.991 0-2.729 5.125-4.683 8.813-4.683 4.24 0 6.084 1.807 5.936 6.01l-.295 6.49c-.074 1.438.48 1.991 1.29 1.991.517 0 1.107-.59 1.586-1.143l.369.406c-1.07 1.364-2.95 3.466-4.941 3.466zm-5.642-3.171c.885 0 1.586-.59 2.065-1.143l.222-5.2c-3.393.922-4.425 2.176-4.425 3.946 0 1.475.811 2.397 2.138 2.397zm9.993 2.691l.11-.627.738-.184c1.807-.369 2.36-1.106 4.535-3.798l2.028-2.397-3.908-6.047c-1.07-1.585-1.844-2.249-2.766-2.36l-.626-.147-.111-.627h10.546l-.111.627-.553.074c-1.18.184-1.07.885-.443 1.843l2.028 3.319h.074l1.143-1.438c2.25-2.987 2.25-3.503-.11-3.724l-.406-.074-.11-.627h6.931l-.11.627-.811.221c-1.697.369-2.323 1.07-4.499 3.724L77.47 15.83l4.24 6.563c1.032 1.66 1.88 2.212 2.544 2.36l.59.147.148.627H74.667l.074-.627.553-.073c1.29-.11 1.106-.848.48-1.807l-2.36-3.872h-.074l-1.549 1.955c-2.323 2.95-2.175 3.502.148 3.724l.368.073.074.627h-6.895zm22.05 9.513c-1.364 0-2.876-.848-2.876-2.58 0-1.217.922-2.397 2.397-2.397 1.585 0 2.47 1.18 2.617 2.286.922-.222 1.365-.922 2.028-2.803l1.18-3.208h-.626l-6.453-14.49c-.59-1.254-.922-1.55-1.991-1.734l-.627-.147-.11-.627h10.36l-.11.627-.811.147c-1.254.185-1.512.554-1.033 1.55l3.614 8.701 2.249-6.231c1.106-3.06.811-3.614-1.143-3.946l-.774-.221-.111-.627h6.821l-.11.627-.811.147c-1.402.148-1.66.701-2.95 4.093L94.21 25.011l-1.807 5.2c-1.143 3.391-2.692 4.83-4.867 4.83zM23.232 46.327l-.192-1.563c4.387-3.125 6.416-4.386 6.416-6.827 0-1.645-1.207-2.796-2.797-2.796-1.426 0-2.495.658-3.235 2.056l-.33-.164c1.015-2.88 3.4-4.387 6.115-4.387 2.55 0 4.36 1.48 4.36 3.564 0 2.577-2.88 4.085-7.54 7.156v.11l5.73.027c1.7 0 2.22-.685 3.153-2.769l.329-.603.52.055-1.206 6.141H23.232zm20.892.357c-4.112 0-7.074-2.907-7.074-6.965 0-4.085 3.4-7.1 7.486-7.1 4.14 0 7.074 2.933 7.074 6.963 0 4.113-3.345 7.102-7.486 7.102zm.165-.603c1.782 0 3.098-2.687 3.098-6.197 0-4.634-1.097-6.69-3.043-6.69-1.782 0-3.071 2.605-3.071 6.224 0 4.853 1.097 6.663 3.016 6.663zm8.582.246l.082-.52.795-.11c.74-.055 1.124-.137 1.124-.466V34.675l-2.467-.247.082-.466 6.58-1.289v12.585c0 .247.466.384 1.262.439l.74.11.082.52h-8.28zm10.309 5.127l-.22-.493c5.073-.686 7.98-4.908 8.72-8.17l-.11-.056c-1.289 1.015-2.714 1.481-3.948 1.481-2.88 0-5.045-1.864-5.045-5.292 0-3.537 3.18-6.251 6.937-6.251 4.085 0 6.827 3.07 6.827 7.184 0 6.032-5.73 11.077-13.161 11.597zm6.772-8.828c.768 0 1.262-.302 1.618-.576.137-.493.22-1.07.22-2.495 0-2.879-.604-6.197-2.605-6.197-1.29 0-2.304 1.454-2.304 4.662 0 3.043 1.152 4.606 3.071 4.606z" id="a"/></defs><g fill="none" fill-rule="evenodd"><use fill="#000" xlink:href="#a"/><use fill="#FFF" xlink:href="#a"/></g></svg>
