<svg width="191" height="37" xmlns="http://www.w3.org/2000/svg" viewBox="0 0 191 37"><path d="M5.12 28.33C2.833 28.06.97 26.39.97 24.53c0-2.095 2.095-3.647 4.383-4.306v-.039c-2.21-.776-3.724-2.25-3.724-4.927 0-3.103 3.104-6.012 7.681-6.012 1.746 0 3.608.426 4.81 1.125l5.664-.621-.31 2.483-3.88-.582-.038.116c.853.737 1.358 1.823 1.358 3.026 0 3.452-3.181 5.896-7.875 5.896-.97 0-1.862-.077-2.677-.232-1.009.271-1.707 1.008-1.707 1.745 0 .931.892 1.358 2.948 1.358 1.203 0 4.035-.116 5.509-.116 3.452 0 5.858 1.94 5.858 5.043 0 4.15-4.54 7.72-10.94 7.72-5.043 0-7.526-1.28-7.526-3.88 0-2.056 2.29-3.103 4.617-3.996zm4.927 6.712c3.142 0 5.276-1.669 5.276-3.88 0-1.978-1.319-2.599-4.073-2.793-.854-.116-2.638-.039-5.16.078-1.125.504-1.435 1.513-1.435 2.91 0 2.094 2.017 3.685 5.392 3.685zm-.776-15.13c1.63 0 2.367-1.28 2.367-4.81 0-3.336-.892-5.004-2.367-5.004-1.59 0-2.25 1.319-2.25 4.965 0 3.375.815 4.85 2.25 4.85zm24.323 7.449c-1.9 0-3.297-1.28-3.569-3.686l-.116-.038c-1.823 2.133-3.453 3.685-5.625 3.685-2.327 0-4.228-1.746-4.228-3.957 0-3.026 2.754-4.849 9.97-6.789l.038-1.086c.117-2.638-1.319-4.694-3.918-4.694-1.435 0-2.056.388-2.056.776 0 .272 1.241 1.28 1.241 2.405 0 1.203-1.086 2.289-2.599 2.289-1.396 0-2.56-.737-2.56-2.095 0-2.87 5.392-4.926 9.271-4.926 4.462 0 6.401 1.9 6.246 6.323l-.31 6.827c-.078 1.513.504 2.095 1.357 2.095.544 0 1.164-.62 1.669-1.203l.387.427c-1.125 1.435-3.103 3.647-5.198 3.647zm-5.935-3.337c.931 0 1.668-.62 2.172-1.202l.233-5.47c-3.569.97-4.655 2.289-4.655 4.151 0 1.552.854 2.521 2.25 2.521zm11.599 2.832l.155-.66.543-.038c1.125-.078 1.358-.194 1.358-.66V6.18c0-1.9-.272-2.25-1.358-2.6l-1.008-.426.077-.465L46.978.516v25.021c0 .35.31.505 1.59.621l.466.039.116.66h-9.892zm25.06.505c-1.901 0-3.297-1.28-3.569-3.686l-.116-.038c-1.824 2.133-3.453 3.685-5.625 3.685-2.328 0-4.229-1.746-4.229-3.957 0-3.026 2.755-4.849 9.97-6.789l.039-1.086c.116-2.638-1.32-4.694-3.918-4.694-1.436 0-2.056.388-2.056.776 0 .272 1.241 1.28 1.241 2.405 0 1.203-1.086 2.289-2.599 2.289-1.397 0-2.56-.737-2.56-2.095 0-2.87 5.392-4.926 9.271-4.926 4.461 0 6.4 1.9 6.246 6.323l-.31 6.827c-.078 1.513.504 2.095 1.357 2.095.543 0 1.164-.62 1.668-1.203l.388.427c-1.125 1.435-3.103 3.647-5.198 3.647zm-5.935-3.337c.93 0 1.668-.62 2.172-1.202l.233-5.47c-3.57.97-4.655 2.289-4.655 4.151 0 1.552.853 2.521 2.25 2.521zm10.512 2.832l.117-.66.776-.193c1.9-.388 2.482-1.164 4.771-3.996l2.134-2.521-4.112-6.362c-1.125-1.668-1.94-2.367-2.91-2.483l-.66-.155-.116-.66H79.99l-.116.66-.582.078c-1.242.193-1.125.93-.466 1.94l2.134 3.49h.077l1.203-1.512c2.366-3.143 2.366-3.686-.116-3.918l-.427-.078-.117-.66h7.293l-.116.66-.853.233c-1.785.388-2.444 1.125-4.733 3.918l-1.668 2.017 4.461 6.905c1.086 1.746 1.978 2.328 2.677 2.483l.62.155.156.66H78.555l.077-.66.582-.078c1.358-.116 1.164-.892.504-1.9l-2.482-4.074h-.078l-1.63 2.056c-2.443 3.104-2.288 3.686.156 3.918l.388.078.078.66h-7.255zm23.198 10.009c-1.435 0-3.026-.892-3.026-2.716 0-1.28.97-2.521 2.522-2.521 1.668 0 2.599 1.241 2.754 2.405.97-.233 1.436-.97 2.134-2.948l1.241-3.375h-.66L90.27 12.464c-.62-1.319-.97-1.629-2.095-1.823l-.66-.155-.116-.66H98.3l-.116.66-.854.155c-1.319.194-1.59.582-1.086 1.63l3.802 9.154 2.366-6.556c1.164-3.22.853-3.801-1.203-4.15l-.814-.233-.117-.66h7.177l-.116.66-.854.155c-1.474.155-1.745.737-3.103 4.306l-4.267 11.366-1.901 5.47c-1.203 3.569-2.832 5.082-5.12 5.082zm23.276-10.009l-.272-2.21c6.207-4.423 9.078-6.208 9.078-9.66 0-2.328-1.707-3.957-3.957-3.957-2.017 0-3.53.931-4.578 2.91l-.465-.233c1.435-4.073 4.81-6.207 8.65-6.207 3.608 0 6.168 2.095 6.168 5.043 0 3.646-4.073 5.78-10.667 10.125v.155l8.107.039c2.405 0 3.142-.97 4.461-3.918l.466-.854.737.078-1.707 8.69h-16.021zm29.56.505c-5.82 0-10.009-4.112-10.009-9.854 0-5.78 4.81-10.047 10.59-10.047 5.858 0 10.009 4.15 10.009 9.853 0 5.82-4.733 10.048-10.59 10.048zm.232-.854c2.522 0 4.384-3.801 4.384-8.767 0-6.556-1.552-9.465-4.306-9.465-2.522 0-4.345 3.685-4.345 8.806 0 6.866 1.552 9.426 4.267 9.426zm12.142.35l.117-.738 1.125-.155c1.047-.077 1.59-.194 1.59-.66V10.37l-3.491-.35.116-.659 9.31-1.823v17.805c0 .35.66.544 1.785.621l1.047.155.117.737h-11.716zm14.586 7.254l-.31-.699c7.176-.97 11.288-6.944 12.336-11.56l-.155-.077c-1.824 1.435-3.84 2.094-5.586 2.094-4.074 0-7.138-2.638-7.138-7.487 0-5.004 4.5-8.844 9.814-8.844 5.78 0 9.66 4.344 9.66 10.163 0 8.535-8.108 15.672-18.62 16.41zm9.582-12.492c1.086 0 1.784-.426 2.289-.814.194-.699.31-1.513.31-3.53 0-4.074-.853-8.767-3.685-8.767-1.823 0-3.259 2.056-3.259 6.594 0 4.306 1.63 6.517 4.345 6.517z" fill="#FFF" fill-rule="evenodd"/></svg>
