<svg xmlns="http://www.w3.org/2000/svg" width="197" height="37" viewBox="0 0 197 37">
  <g fill-rule="evenodd" fill="#FFF">
    <path d="M5.12 28.33C2.833 28.06.97 26.39.97 24.53.97 22.435 3.065 20.883 5.353 20.224L5.353 20.185C3.143 19.409 1.629 17.935 1.629 15.258 1.629 12.155 4.733 9.246 9.31 9.246 11.056 9.246 12.918 9.672 14.12 10.371L19.784 9.75 19.474 12.233 15.594 11.651 15.556 11.767C16.409 12.504 16.914 13.59 16.914 14.793 16.914 18.245 13.733 20.689 9.039 20.689 8.069 20.689 7.177 20.612 6.362 20.457 5.353 20.728 4.655 21.465 4.655 22.202 4.655 23.133 5.547 23.56 7.603 23.56 8.806 23.56 11.638 23.444 13.112 23.444 16.564 23.444 18.97 25.384 18.97 28.487 18.97 32.637 14.43 36.207 8.03 36.207 2.987 36.207.504 34.927.504 32.327.504 30.271 2.794 29.224 5.121 28.331L5.12 28.33zM10.047 35.042C13.189 35.042 15.323 33.373 15.323 31.162 15.323 29.184 14.004 28.563 11.25 28.369 10.396 28.253 8.612 28.33 6.09 28.447 4.965 28.951 4.655 29.96 4.655 31.357 4.655 33.451 6.672 35.042 10.047 35.042zM9.271 19.912C10.901 19.912 11.638 18.632 11.638 15.102 11.638 11.766 10.746 10.098 9.271 10.098 7.681 10.098 7.021 11.417 7.021 15.063 7.021 18.438 7.836 19.913 9.271 19.913L9.271 19.912zM33.594 27.361C31.694 27.361 30.297 26.081 30.025 23.675L29.909 23.637C28.086 25.77 26.456 27.322 24.284 27.322 21.957 27.322 20.056 25.576 20.056 23.365 20.056 20.339 22.81 18.516 30.026 16.576L30.064 15.49C30.181 12.852 28.745 10.796 26.146 10.796 24.711 10.796 24.09 11.184 24.09 11.572 24.09 11.844 25.331 12.852 25.331 13.977 25.331 15.18 24.245 16.266 22.732 16.266 21.336 16.266 20.172 15.529 20.172 14.171 20.172 11.301 25.564 9.245 29.443 9.245 33.905 9.245 35.844 11.145 35.689 15.568L35.379 22.395C35.301 23.908 35.883 24.49 36.736 24.49 37.28 24.49 37.9 23.87 38.405 23.287L38.792 23.714C37.667 25.149 35.689 27.361 33.594 27.361zM27.659 24.024C28.59 24.024 29.327 23.404 29.831 22.822L30.064 17.352C26.495 18.322 25.409 19.641 25.409 21.503 25.409 23.055 26.263 24.024 27.659 24.024zM39.258 26.856L39.413 26.196 39.956 26.158C41.081 26.08 41.314 25.964 41.314 25.498L41.314 6.18C41.314 4.28 41.042 3.93 39.956 3.58L38.948 3.154 39.025 2.689 46.978.516 46.978 25.537C46.978 25.887 47.288 26.042 48.568 26.158L49.034 26.197 49.15 26.857 39.258 26.857 39.258 26.856zM64.318 27.361C62.417 27.361 61.021 26.081 60.749 23.675L60.633 23.637C58.809 25.77 57.18 27.322 55.008 27.322 52.68 27.322 50.779 25.576 50.779 23.365 50.779 20.339 53.534 18.516 60.749 16.576L60.788 15.49C60.904 12.852 59.468 10.796 56.87 10.796 55.434 10.796 54.814 11.184 54.814 11.572 54.814 11.844 56.055 12.852 56.055 13.977 56.055 15.18 54.969 16.266 53.456 16.266 52.059 16.266 50.896 15.529 50.896 14.171 50.896 11.301 56.288 9.245 60.167 9.245 64.628 9.245 66.567 11.145 66.413 15.568L66.103 22.395C66.025 23.908 66.607 24.49 67.46 24.49 68.003 24.49 68.624 23.87 69.128 23.287L69.516 23.714C68.391 25.149 66.413 27.361 64.318 27.361zM88.873 9.826L98.3 9.826 98.184 10.486 97.33 10.641C96.011 10.835 95.74 11.223 96.244 12.271L100.046 21.425 102.412 14.869C103.576 11.649 103.265 11.068 101.209 10.719L100.395 10.486 100.278 9.826 107.455 9.826 107.339 10.486 106.485 10.641C105.011 10.796 104.74 11.378 103.382 14.947L99.115 26.313 97.214 31.783C96.011 35.352 94.382 36.865 92.094 36.865L92.093 36.865C90.658 36.865 89.067 35.973 89.067 34.149 89.067 32.869 90.037 31.628 91.589 31.628 93.257 31.628 94.188 32.869 94.343 34.033 95.313 33.8 95.779 33.063 96.477 31.085L97.718 27.71 97.058 27.71 90.27 12.464C89.6516397 11.1484884 89.3018532 10.8366468 88.1839097 10.6425417L87.904 10.719C86.119 11.107 85.46 11.844 83.171 14.637L81.503 16.654 85.964 23.559C87.05 25.305 87.942 25.887 88.641 26.042L89.261 26.197 89.417 26.857 78.555 26.857 78.632 26.197 79.214 26.119C80.572 26.003 80.378 25.227 79.718 24.219L77.236 20.145 77.158 20.145 75.528 22.201C73.085 25.305 73.24 25.887 75.684 26.119L76.072 26.197 76.15 26.857 68.895 26.857 68.895 26.856 69.012 26.196 69.788 26.003C71.688 25.615 72.27 24.839 74.559 22.007L76.693 19.486 72.581 13.124C71.456 11.456 70.641 10.757 69.671 10.641L69.011 10.486 68.895 9.826 79.99 9.826 79.874 10.486 79.292 10.564C78.05 10.757 78.167 11.494 78.826 12.504L80.96 15.994 81.037 15.994 82.24 14.482C84.606 11.339 84.606 10.796 82.124 10.564L81.697 10.486 81.58 9.826 88.873 9.826zM58.383 24.024C56.986 24.024 56.133 23.055 56.133 21.503 56.133 19.641 57.218 18.322 60.788 17.352L60.555 22.822C60.051 23.404 59.313 24.024 58.383 24.024zM115.0752 27L114.8064 24.8112C120.9504 20.4336 123.792 18.6672 123.792 15.2496 123.792 12.9456 122.1024 11.3328 119.8752 11.3328 117.8784 11.3328 116.3808 12.2544 115.344 14.2128L114.8832 13.9824C116.304 9.9504 119.6448 7.8384 123.4464 7.8384 127.0176 7.8384 129.552 9.912 129.552 12.8304 129.552 16.44 125.52 18.552 118.992 22.8528L118.992 23.0064 127.0176 23.0448C129.3984 23.0448 130.128 22.0848 131.4336 19.1664L131.8944 18.3216 132.624 18.3984 130.9344 27 115.0752 27zM144.336 27.4992C138.576 27.4992 134.4288 23.4288 134.4288 17.7456 134.4288 12.024 139.1904 7.8 144.912 7.8 150.7104 7.8 154.8192 11.9088 154.8192 17.5536 154.8192 23.3136 150.1344 27.4992 144.336 27.4992zM144.5664 26.6544C147.0624 26.6544 148.9056 22.8912 148.9056 17.976 148.9056 11.4864 147.3696 8.6064 144.6432 8.6064 142.1472 8.6064 140.3424 12.2544 140.3424 17.3232 140.3424 24.12 141.8784 26.6544 144.5664 26.6544zM157.1232 27L156.8544 24.8112C162.9984 20.4336 165.84 18.6672 165.84 15.2496 165.84 12.9456 164.1504 11.3328 161.9232 11.3328 159.9264 11.3328 158.4288 12.2544 157.392 14.2128L156.9312 13.9824C158.352 9.9504 161.6928 7.8384 165.4944 7.8384 169.0656 7.8384 171.6 9.912 171.6 12.8304 171.6 16.44 167.568 18.552 161.04 22.8528L161.04 23.0064 169.0656 23.0448C171.4464 23.0448 172.176 22.0848 173.4816 19.1664L173.9424 18.3216 174.672 18.3984 172.9824 27 157.1232 27zM186.384 27.4992C180.624 27.4992 176.4768 23.4288 176.4768 17.7456 176.4768 12.024 181.2384 7.8 186.96 7.8 192.7584 7.8 196.8672 11.9088 196.8672 17.5536 196.8672 23.3136 192.1824 27.4992 186.384 27.4992zM186.6144 26.6544C189.1104 26.6544 190.9536 22.8912 190.9536 17.976 190.9536 11.4864 189.4176 8.6064 186.6912 8.6064 184.1952 8.6064 182.3904 12.2544 182.3904 17.3232 182.3904 24.12 183.9264 26.6544 186.6144 26.6544z" fill="#FFF" fill-rule="evenodd"/>
  </g>
</svg>
