<svg xmlns="http://www.w3.org/2000/svg" width="24" height="24" viewBox="0 0 24 24">
  <g fill="none" fill-rule="evenodd" stroke="#000" stroke-linejoin="round">
    <polygon points="8.5 8.5 5 5.5 2.5 9.5 6.5 23.5 12.5 23.5"/>
    <polyline stroke-linecap="round" points="7.5 13.27 6.438 9.286 5.508 8.489"/>
    <polyline points="16.987 7.947 16.5 3.5 14 .5 10.5 4.5 10 14.126"/>
    <polyline stroke-linecap="round" points="14.947 7.942 14.714 4.818 13.963 3.916"/>
    <polyline points="12.5 23.5 18.5 23.5 23.5 8.5 22 3.5 17.5 6.5 12.075 21.802"/>
    <polyline stroke-linecap="round" points="19.526 13.958 21.422 8.268 20.853 6.371"/>
    <polygon points="20.209 18.372 23.5 15.5 22.5 23.5 18.5 23.5"/>
    <polyline points="7.5 23.5 2.5 23.5 .5 14.5 5.977 21.542"/>
  </g>
</svg>
