<svg xmlns="http://www.w3.org/2000/svg" width="24" height="24" viewBox="0 0 24 24">
  <g fill="none" fill-rule="evenodd" stroke="#000" stroke-linejoin="round">
    <path stroke-linecap="round" d="M6.5,12 C6.5,6.906 9.306,2.526 13.327,0.58 C12.893,0.529 12.449,0.5 12,0.5 C5.648,0.5 0.5,5.649 0.5,12 C0.5,18.352 5.648,23.5 12,23.5 C12.449,23.5 12.893,23.473 13.327,23.423 C9.306,21.476 6.5,17.095 6.5,12 L6.5,12 Z"/>
    <path d="M18.5 14.5C18.492 17.012 19.715 18.442 22.5 18.5 19.916 18.49 18.631 19.875 18.5 22.5 18.478 20.026 17.369 18.498 14.5 18.5 17.068 18.465 18.489 17.224 18.5 14.5L18.5 14.5zM13.5 8C13.494 9.57 14.26 10.463 16 10.5 14.385 10.494 13.582 11.36 13.5 13 13.486 11.454 12.793 10.499 11 10.5 12.604 10.478 13.494 9.703 13.5 8L13.5 8zM20.5 1.5C20.494 3.385 21.412 4.457 23.5 4.5 21.562 4.493 20.598 5.532 20.5 7.5 20.484 5.644 19.65 4.498 17.5 4.5 19.426 4.474 20.492 3.544 20.5 1.5L20.5 1.5z"/>
  </g>
</svg>
