<svg xmlns="http://www.w3.org/2000/svg" width="24" height="25" viewBox="0 0 24 25">
  <g fill="none" fill-rule="evenodd" stroke="#000" stroke-linecap="round" stroke-linejoin="round">
    <path d="M18.1084 8.5186L19.5004 8.5186M16.3701 3.6294L17.4131 2.5854M11.5 1.9106L11.5.5186M6.6309 3.6294L5.5869 2.5854M4.8911 8.5186L3.5001 8.5186M.5 15.5L.5 23.5 22.5 23.5 22.5 15.5C17 11.969 6 12.031.5 15.5L.5 15.5zM16.6309 23.5205L13.3689 12.9315M22.519 22.5068L14.834 13.0628M6.3691 23.5L9.6311 12.939M.5645 22.5068L8.2675 13.0628M11.5 23.5205L11.5 12.8755"/>
    <path d="M9.2236,12.9722 C7.6066,12.1432 6.4996,10.4602 6.4996,8.5182 C6.4996,5.7572 8.7386,3.5182 11.4996,3.5182 C14.2616,3.5182 16.4996,5.7572 16.4996,8.5182 C16.4996,10.4522 15.4016,12.1312 13.7946,12.9632"/>
  </g>
</svg>
