<svg xmlns="http://www.w3.org/2000/svg" width="24" height="24" viewBox="0 0 24 24">
  <g fill="none" fill-rule="evenodd" stroke="#000" stroke-linejoin="round">
    <path stroke-linecap="round" d="M11.5 13.5L11.5 23.5M19.5 5.5C19.105 5.5 18.723 5.56 18.361 5.668 17.746 2.717 15.133.5 12 .5 9.66.5 7.615 1.741 6.47 3.596 6.156 3.535 5.832 3.5 5.5 3.5 2.738 3.5.5 5.739.5 8.5.5 11.262 2.738 13.5 5.5 13.5 6.634 13.5 7.677 13.118 8.516 12.482 9.523 13.124 10.717 13.5 12 13.5 13.645 13.5 15.143 12.885 16.288 11.876 17.017 12.86 18.182 13.5 19.5 13.5 21.71 13.5 23.5 11.71 23.5 9.5 23.5 7.291 21.71 5.5 19.5 5.5L19.5 5.5z"/>
    <path d="M11.5,20 L13.94,17.561"/>
    <path stroke-linecap="round" d="M16.5,16.5 C16.5,17.329 15.828,18 15,18 C14.171,18 13.5,17.329 13.5,16.5 C13.5,15.672 14.171,15 15,15 C15.828,15 16.5,15.672 16.5,16.5 L16.5,16.5 Z"/>
  </g>
</svg>
