<svg xmlns="http://www.w3.org/2000/svg" width="24" height="24" viewBox="0 0 24 24">
  <g fill="none" fill-rule="evenodd" stroke="#000" stroke-linejoin="round">
    <path d="M10.4126 13.2695L1.5686 16.5385C1.3996 16.6015 1.2096 16.5555 1.0866 16.4245.9646 16.2935 1.0066 16.1175 1.0066 15.9355 1.0066 10.0665 6.9796 10.0015 10.4796 11.0015M10.4795 10.5664L10.4795 1.0664C10.4755.8854 10.7675.6664 10.9325.5924 11.0965.5184 11.2495.6174 11.4195.6764 16.6585 2.4844 15.0815 7.6784 13.4795 10.5024M13.4951 10.8164L22.5031 14.9644C22.6671 15.0384 22.7701 15.2034 22.7661 15.3844 22.7601 15.5634 22.6051 15.6594 22.4781 15.7874 19.0851 19.2144 15.5321 16.7324 13.4791 14.3004"/>
    <path stroke-linecap="round" d="M23.4795,23.5 L0.4995,23.5"/>
    <path d="M10.4795,10.5664 C10.4795,9.7384 11.1505,9.0664 11.9795,9.0664 C12.8075,9.0664 13.4795,9.7384 13.4795,10.5664 L13.4795,23.5004 L10.4795,23.5004 L10.4795,10.5664 L10.4795,10.5664 Z"/>
  </g>
</svg>
